<svg width="771" height="256" viewBox="0 0 771 256" fill="none" xmlns="http://www.w3.org/2000/svg">
<path d="M201.913 243.342C199.38 243.342 197.163 242.785 195.263 241.67C193.388 240.53 191.932 238.934 190.893 236.882C189.88 234.805 189.373 232.373 189.373 229.586C189.373 227.483 189.664 225.596 190.247 223.924C190.83 222.227 191.666 220.783 192.755 219.592C193.844 218.376 195.162 217.451 196.707 216.818C198.252 216.185 199.988 215.868 201.913 215.868C204.472 215.868 206.688 216.425 208.563 217.54C210.438 218.655 211.882 220.238 212.895 222.29C213.934 224.342 214.453 226.761 214.453 229.548C214.453 231.651 214.162 233.551 213.579 235.248C212.996 236.945 212.148 238.402 211.033 239.618C209.944 240.834 208.626 241.759 207.081 242.392C205.536 243.025 203.813 243.342 201.913 243.342ZM201.913 239.922C203.686 239.922 205.194 239.517 206.435 238.706C207.702 237.895 208.664 236.717 209.323 235.172C210.007 233.627 210.349 231.765 210.349 229.586C210.349 226.318 209.614 223.785 208.145 221.986C206.676 220.187 204.598 219.288 201.913 219.288C200.14 219.288 198.62 219.693 197.353 220.504C196.112 221.289 195.149 222.455 194.465 224C193.806 225.545 193.477 227.407 193.477 229.586C193.477 232.829 194.212 235.362 195.681 237.186C197.176 239.01 199.253 239.922 201.913 239.922ZM221.232 250.106C220.624 250.106 220.155 249.941 219.826 249.612C219.496 249.283 219.332 248.801 219.332 248.168V226.128C219.332 225.495 219.496 225.013 219.826 224.684C220.155 224.355 220.611 224.19 221.194 224.19C221.802 224.19 222.27 224.355 222.6 224.684C222.929 225.013 223.094 225.495 223.094 226.128V229.434L222.676 228.636C223.081 227.268 223.879 226.179 225.07 225.368C226.26 224.532 227.666 224.114 229.288 224.114C230.934 224.114 232.366 224.507 233.582 225.292C234.823 226.077 235.773 227.179 236.432 228.598C237.116 230.017 237.458 231.727 237.458 233.728C237.458 235.679 237.116 237.389 236.432 238.858C235.773 240.302 234.836 241.417 233.62 242.202C232.404 242.962 230.96 243.342 229.288 243.342C227.692 243.342 226.298 242.937 225.108 242.126C223.917 241.315 223.119 240.239 222.714 238.896H223.17V248.168C223.17 248.801 222.992 249.283 222.638 249.612C222.308 249.941 221.84 250.106 221.232 250.106ZM228.338 240.378C229.402 240.378 230.326 240.125 231.112 239.618C231.897 239.111 232.505 238.364 232.936 237.376C233.366 236.388 233.582 235.172 233.582 233.728C233.582 231.549 233.1 229.903 232.138 228.788C231.2 227.673 229.934 227.116 228.338 227.116C227.299 227.116 226.374 227.369 225.564 227.876C224.778 228.357 224.17 229.092 223.74 230.08C223.309 231.068 223.094 232.284 223.094 233.728C223.094 235.881 223.575 237.528 224.538 238.668C225.5 239.808 226.767 240.378 228.338 240.378ZM250.485 243.342C248.458 243.342 246.71 242.962 245.241 242.202C243.797 241.417 242.67 240.315 241.859 238.896C241.074 237.452 240.681 235.742 240.681 233.766C240.681 231.841 241.074 230.156 241.859 228.712C242.644 227.268 243.721 226.141 245.089 225.33C246.457 224.519 248.015 224.114 249.763 224.114C251.055 224.114 252.208 224.329 253.221 224.76C254.234 225.165 255.096 225.773 255.805 226.584C256.54 227.369 257.084 228.332 257.439 229.472C257.819 230.612 258.009 231.891 258.009 233.31C258.009 233.741 257.882 234.07 257.629 234.298C257.376 234.501 256.996 234.602 256.489 234.602H243.721V232.246H255.425L254.779 232.778C254.779 231.511 254.589 230.435 254.209 229.548C253.854 228.661 253.31 227.99 252.575 227.534C251.866 227.053 250.979 226.812 249.915 226.812C248.724 226.812 247.711 227.091 246.875 227.648C246.064 228.205 245.444 228.978 245.013 229.966C244.582 230.954 244.367 232.107 244.367 233.424V233.652C244.367 235.881 244.886 237.566 245.925 238.706C246.989 239.821 248.522 240.378 250.523 240.378C251.283 240.378 252.081 240.277 252.917 240.074C253.778 239.871 254.589 239.529 255.349 239.048C255.78 238.795 256.16 238.681 256.489 238.706C256.844 238.731 257.122 238.845 257.325 239.048C257.553 239.251 257.692 239.504 257.743 239.808C257.794 240.112 257.743 240.429 257.591 240.758C257.439 241.062 257.173 241.341 256.793 241.594C255.932 242.177 254.931 242.62 253.791 242.924C252.651 243.203 251.549 243.342 250.485 243.342ZM264.093 243.266C263.485 243.266 263.016 243.101 262.687 242.772C262.358 242.417 262.193 241.936 262.193 241.328V226.128C262.193 225.495 262.358 225.013 262.687 224.684C263.016 224.355 263.472 224.19 264.055 224.19C264.663 224.19 265.119 224.355 265.423 224.684C265.752 225.013 265.917 225.495 265.917 226.128V229.092L265.499 228.408C266.056 226.989 266.93 225.925 268.121 225.216C269.312 224.481 270.68 224.114 272.225 224.114C273.694 224.114 274.91 224.393 275.873 224.95C276.861 225.482 277.596 226.305 278.077 227.42C278.558 228.509 278.799 229.89 278.799 231.562V241.328C278.799 241.936 278.634 242.417 278.305 242.772C277.976 243.101 277.507 243.266 276.899 243.266C276.266 243.266 275.784 243.101 275.455 242.772C275.126 242.417 274.961 241.936 274.961 241.328V231.79C274.961 230.194 274.644 229.029 274.011 228.294C273.403 227.559 272.44 227.192 271.123 227.192C269.578 227.192 268.336 227.673 267.399 228.636C266.487 229.599 266.031 230.891 266.031 232.512V241.328C266.031 242.62 265.385 243.266 264.093 243.266ZM296.653 243C295.969 243 295.437 242.823 295.057 242.468C294.703 242.088 294.525 241.556 294.525 240.872V218.338C294.525 217.654 294.703 217.135 295.057 216.78C295.437 216.4 295.969 216.21 296.653 216.21H303.987C308.395 216.21 311.79 217.363 314.171 219.668C316.578 221.948 317.781 225.254 317.781 229.586C317.781 231.739 317.477 233.652 316.869 235.324C316.261 236.996 315.362 238.402 314.171 239.542C313.006 240.657 311.575 241.518 309.877 242.126C308.18 242.709 306.217 243 303.987 243H296.653ZM298.477 239.694H303.759C305.431 239.694 306.875 239.491 308.091 239.086C309.333 238.655 310.371 238.022 311.207 237.186C312.043 236.35 312.664 235.299 313.069 234.032C313.475 232.765 313.677 231.283 313.677 229.586C313.677 226.217 312.841 223.696 311.169 222.024C309.523 220.352 307.053 219.516 303.759 219.516H298.477V239.694ZM328.572 243.342C327.28 243.342 326.115 243.089 325.076 242.582C324.063 242.075 323.265 241.391 322.682 240.53C322.1 239.669 321.808 238.693 321.808 237.604C321.808 236.236 322.15 235.159 322.834 234.374C323.544 233.563 324.696 232.993 326.292 232.664C327.914 232.309 330.092 232.132 332.828 232.132H334.614V234.488H332.866C331.042 234.488 329.598 234.577 328.534 234.754C327.47 234.931 326.71 235.235 326.254 235.666C325.824 236.071 325.608 236.641 325.608 237.376C325.608 238.339 325.938 239.124 326.596 239.732C327.255 240.315 328.167 240.606 329.332 240.606C330.27 240.606 331.093 240.391 331.802 239.96C332.512 239.504 333.069 238.896 333.474 238.136C333.905 237.376 334.12 236.502 334.12 235.514V231.144C334.12 229.7 333.816 228.661 333.208 228.028C332.6 227.395 331.6 227.078 330.206 227.078C329.396 227.078 328.547 227.179 327.66 227.382C326.799 227.585 325.9 227.927 324.962 228.408C324.532 228.611 324.164 228.674 323.86 228.598C323.556 228.522 323.316 228.357 323.138 228.104C322.961 227.825 322.86 227.534 322.834 227.23C322.834 226.901 322.91 226.584 323.062 226.28C323.24 225.976 323.531 225.748 323.936 225.596C325.051 225.064 326.153 224.684 327.242 224.456C328.332 224.228 329.358 224.114 330.32 224.114C332.018 224.114 333.411 224.38 334.5 224.912C335.615 225.444 336.438 226.255 336.97 227.344C337.502 228.433 337.768 229.839 337.768 231.562V241.328C337.768 241.936 337.616 242.417 337.312 242.772C337.008 243.101 336.565 243.266 335.982 243.266C335.425 243.266 334.982 243.101 334.652 242.772C334.323 242.417 334.158 241.936 334.158 241.328V238.858H334.5C334.298 239.795 333.918 240.606 333.36 241.29C332.828 241.949 332.157 242.455 331.346 242.81C330.536 243.165 329.611 243.342 328.572 243.342ZM344.954 243.228C344.346 243.228 343.878 243.051 343.548 242.696C343.219 242.316 343.054 241.797 343.054 241.138V226.318C343.054 225.659 343.219 225.153 343.548 224.798C343.878 224.443 344.346 224.266 344.954 224.266C345.562 224.266 346.031 224.443 346.36 224.798C346.715 225.153 346.892 225.659 346.892 226.318V241.138C346.892 241.797 346.728 242.316 346.398 242.696C346.069 243.051 345.588 243.228 344.954 243.228ZM344.954 220.314C344.194 220.314 343.599 220.124 343.168 219.744C342.763 219.364 342.56 218.832 342.56 218.148C342.56 217.439 342.763 216.907 343.168 216.552C343.599 216.172 344.194 215.982 344.954 215.982C345.714 215.982 346.297 216.172 346.702 216.552C347.133 216.907 347.348 217.439 347.348 218.148C347.348 218.832 347.133 219.364 346.702 219.744C346.297 220.124 345.714 220.314 344.954 220.314ZM358.261 243.342C356.285 243.342 354.79 242.772 353.777 241.632C352.789 240.467 352.295 238.795 352.295 236.616V217.882C352.295 217.249 352.459 216.767 352.789 216.438C353.118 216.109 353.587 215.944 354.195 215.944C354.803 215.944 355.271 216.109 355.601 216.438C355.955 216.767 356.133 217.249 356.133 217.882V236.388C356.133 237.655 356.386 238.605 356.893 239.238C357.425 239.846 358.185 240.15 359.173 240.15C359.401 240.15 359.603 240.15 359.781 240.15C359.958 240.125 360.135 240.099 360.313 240.074C360.617 240.049 360.832 240.137 360.959 240.34C361.085 240.517 361.149 240.897 361.149 241.48C361.149 242.012 361.035 242.43 360.807 242.734C360.579 243.013 360.211 243.19 359.705 243.266C359.477 243.291 359.236 243.304 358.983 243.304C358.729 243.329 358.489 243.342 358.261 243.342ZM367.835 250.106C367.379 250.106 366.999 249.979 366.695 249.726C366.416 249.498 366.251 249.181 366.201 248.776C366.175 248.396 366.251 247.978 366.429 247.522L369.013 241.708V243.342L361.907 226.812C361.729 226.356 361.666 225.925 361.717 225.52C361.767 225.115 361.957 224.798 362.287 224.57C362.616 224.317 363.059 224.19 363.617 224.19C364.098 224.19 364.478 224.304 364.757 224.532C365.035 224.76 365.289 225.153 365.517 225.71L371.255 239.884H370.191L376.005 225.71C376.233 225.127 376.499 224.735 376.803 224.532C377.107 224.304 377.525 224.19 378.057 224.19C378.513 224.19 378.867 224.317 379.121 224.57C379.399 224.798 379.564 225.115 379.615 225.52C379.691 225.9 379.627 226.318 379.425 226.774L369.925 248.624C369.671 249.207 369.38 249.599 369.051 249.802C368.747 250.005 368.341 250.106 367.835 250.106ZM396.988 243.266C396.532 243.266 396.14 243.165 395.81 242.962C395.506 242.734 395.316 242.43 395.24 242.05C395.19 241.645 395.278 241.201 395.506 240.72L407.4 218.034V219.516H394.328C393.771 219.516 393.34 219.377 393.036 219.098C392.732 218.794 392.58 218.389 392.58 217.882C392.58 217.35 392.732 216.945 393.036 216.666C393.34 216.362 393.771 216.21 394.328 216.21H409.262C409.82 216.21 410.263 216.362 410.592 216.666C410.947 216.945 411.124 217.35 411.124 217.882C411.124 218.338 411.061 218.731 410.934 219.06C410.833 219.389 410.681 219.757 410.478 220.162L399.192 241.974C398.964 242.43 398.673 242.759 398.318 242.962C397.964 243.165 397.52 243.266 396.988 243.266ZM421.939 243.342C420.647 243.342 419.482 243.089 418.443 242.582C417.43 242.075 416.632 241.391 416.049 240.53C415.467 239.669 415.175 238.693 415.175 237.604C415.175 236.236 415.517 235.159 416.201 234.374C416.911 233.563 418.063 232.993 419.659 232.664C421.281 232.309 423.459 232.132 426.195 232.132H427.981V234.488H426.233C424.409 234.488 422.965 234.577 421.901 234.754C420.837 234.931 420.077 235.235 419.621 235.666C419.191 236.071 418.975 236.641 418.975 237.376C418.975 238.339 419.305 239.124 419.963 239.732C420.622 240.315 421.534 240.606 422.699 240.606C423.637 240.606 424.46 240.391 425.169 239.96C425.879 239.504 426.436 238.896 426.841 238.136C427.272 237.376 427.487 236.502 427.487 235.514V231.144C427.487 229.7 427.183 228.661 426.575 228.028C425.967 227.395 424.967 227.078 423.573 227.078C422.763 227.078 421.914 227.179 421.027 227.382C420.166 227.585 419.267 227.927 418.329 228.408C417.899 228.611 417.531 228.674 417.227 228.598C416.923 228.522 416.683 228.357 416.505 228.104C416.328 227.825 416.227 227.534 416.201 227.23C416.201 226.901 416.277 226.584 416.429 226.28C416.607 225.976 416.898 225.748 417.303 225.596C418.418 225.064 419.52 224.684 420.609 224.456C421.699 224.228 422.725 224.114 423.687 224.114C425.385 224.114 426.778 224.38 427.867 224.912C428.982 225.444 429.805 226.255 430.337 227.344C430.869 228.433 431.135 229.839 431.135 231.562V241.328C431.135 241.936 430.983 242.417 430.679 242.772C430.375 243.101 429.932 243.266 429.349 243.266C428.792 243.266 428.349 243.101 428.019 242.772C427.69 242.417 427.525 241.936 427.525 241.328V238.858H427.867C427.665 239.795 427.285 240.606 426.727 241.29C426.195 241.949 425.524 242.455 424.713 242.81C423.903 243.165 422.978 243.342 421.939 243.342ZM438.398 243.266C437.79 243.266 437.321 243.101 436.992 242.772C436.662 242.417 436.498 241.936 436.498 241.328V226.128C436.498 225.495 436.662 225.013 436.992 224.684C437.321 224.355 437.777 224.19 438.36 224.19C438.968 224.19 439.424 224.355 439.728 224.684C440.057 225.013 440.222 225.495 440.222 226.128V229.244L439.804 228.408C440.31 227.065 441.096 226.014 442.16 225.254C443.224 224.494 444.503 224.114 445.998 224.114C447.543 224.114 448.797 224.481 449.76 225.216C450.722 225.951 451.381 227.078 451.736 228.598H451.204C451.685 227.205 452.508 226.115 453.674 225.33C454.839 224.519 456.194 224.114 457.74 224.114C459.158 224.114 460.324 224.393 461.236 224.95C462.148 225.482 462.832 226.305 463.288 227.42C463.744 228.509 463.972 229.89 463.972 231.562V241.328C463.972 241.936 463.794 242.417 463.44 242.772C463.11 243.101 462.642 243.266 462.034 243.266C461.426 243.266 460.957 243.101 460.628 242.772C460.298 242.417 460.134 241.936 460.134 241.328V231.752C460.134 230.181 459.855 229.029 459.298 228.294C458.766 227.559 457.879 227.192 456.638 227.192C455.244 227.192 454.142 227.673 453.332 228.636C452.521 229.599 452.116 230.929 452.116 232.626V241.328C452.116 241.936 451.951 242.417 451.622 242.772C451.292 243.101 450.824 243.266 450.216 243.266C449.608 243.266 449.126 243.101 448.772 242.772C448.442 242.417 448.278 241.936 448.278 241.328V231.752C448.278 230.181 448.012 229.029 447.48 228.294C446.948 227.559 446.061 227.192 444.82 227.192C443.426 227.192 442.324 227.673 441.514 228.636C440.728 229.599 440.336 230.929 440.336 232.626V241.328C440.336 242.62 439.69 243.266 438.398 243.266ZM477.685 234.07C477.305 234.07 476.989 233.956 476.735 233.728C476.507 233.475 476.393 233.183 476.393 232.854C476.393 232.499 476.507 232.221 476.735 232.018C476.989 231.79 477.305 231.676 477.685 231.676H494.671C495.026 231.676 495.317 231.79 495.545 232.018C495.799 232.221 495.925 232.499 495.925 232.854C495.925 233.183 495.799 233.475 495.545 233.728C495.317 233.956 495.026 234.07 494.671 234.07H477.685ZM517.079 243.342C515.052 243.342 513.304 243.051 511.835 242.468C510.391 241.885 509.276 241.037 508.491 239.922C507.731 238.782 507.351 237.427 507.351 235.856C507.351 234.589 507.604 233.475 508.111 232.512C508.617 231.524 509.327 230.726 510.239 230.118C511.151 229.51 512.202 229.13 513.393 228.978V229.662C511.746 229.307 510.429 228.535 509.441 227.344C508.478 226.128 507.997 224.684 507.997 223.012C507.997 221.517 508.364 220.238 509.099 219.174C509.859 218.085 510.923 217.261 512.291 216.704C513.659 216.147 515.255 215.868 517.079 215.868C518.928 215.868 520.537 216.147 521.905 216.704C523.273 217.261 524.324 218.085 525.059 219.174C525.819 220.238 526.199 221.517 526.199 223.012C526.199 224.127 525.971 225.153 525.515 226.09C525.084 227.002 524.463 227.775 523.653 228.408C522.842 229.016 521.892 229.421 520.803 229.624V228.978C522.601 229.231 524.045 229.979 525.135 231.22C526.249 232.436 526.807 233.981 526.807 235.856C526.807 237.427 526.414 238.782 525.629 239.922C524.869 241.037 523.767 241.885 522.323 242.468C520.879 243.051 519.131 243.342 517.079 243.342ZM517.079 240.226C519.08 240.226 520.587 239.846 521.601 239.086C522.614 238.301 523.121 237.135 523.121 235.59C523.121 234.045 522.614 232.892 521.601 232.132C520.587 231.372 519.08 230.992 517.079 230.992C515.103 230.992 513.595 231.372 512.557 232.132C511.543 232.892 511.037 234.045 511.037 235.59C511.037 237.135 511.543 238.301 512.557 239.086C513.595 239.846 515.103 240.226 517.079 240.226ZM517.079 227.876C518.219 227.876 519.181 227.699 519.967 227.344C520.777 226.964 521.398 226.445 521.829 225.786C522.259 225.102 522.475 224.304 522.475 223.392C522.475 222.024 521.993 220.947 521.031 220.162C520.093 219.377 518.776 218.984 517.079 218.984C515.381 218.984 514.064 219.377 513.127 220.162C512.189 220.947 511.721 222.024 511.721 223.392C511.721 224.785 512.189 225.887 513.127 226.698C514.064 227.483 515.381 227.876 517.079 227.876ZM533.062 250.106C532.454 250.106 531.985 249.941 531.656 249.612C531.327 249.283 531.162 248.801 531.162 248.168V226.128C531.162 225.495 531.327 225.013 531.656 224.684C531.985 224.355 532.441 224.19 533.024 224.19C533.632 224.19 534.101 224.355 534.43 224.684C534.759 225.013 534.924 225.495 534.924 226.128V229.434L534.506 228.636C534.911 227.268 535.709 226.179 536.9 225.368C538.091 224.532 539.497 224.114 541.118 224.114C542.765 224.114 544.196 224.507 545.412 225.292C546.653 226.077 547.603 227.179 548.262 228.598C548.946 230.017 549.288 231.727 549.288 233.728C549.288 235.679 548.946 237.389 548.262 238.858C547.603 240.302 546.666 241.417 545.45 242.202C544.234 242.962 542.79 243.342 541.118 243.342C539.522 243.342 538.129 242.937 536.938 242.126C535.747 241.315 534.949 240.239 534.544 238.896H535V248.168C535 248.801 534.823 249.283 534.468 249.612C534.139 249.941 533.67 250.106 533.062 250.106ZM540.168 240.378C541.232 240.378 542.157 240.125 542.942 239.618C543.727 239.111 544.335 238.364 544.766 237.376C545.197 236.388 545.412 235.172 545.412 233.728C545.412 231.549 544.931 229.903 543.968 228.788C543.031 227.673 541.764 227.116 540.168 227.116C539.129 227.116 538.205 227.369 537.394 227.876C536.609 228.357 536.001 229.092 535.57 230.08C535.139 231.068 534.924 232.284 534.924 233.728C534.924 235.881 535.405 237.528 536.368 238.668C537.331 239.808 538.597 240.378 540.168 240.378ZM555.589 243.266C554.981 243.266 554.512 243.101 554.183 242.772C553.854 242.417 553.689 241.936 553.689 241.328V226.128C553.689 225.495 553.854 225.013 554.183 224.684C554.512 224.355 554.968 224.19 555.551 224.19C556.159 224.19 556.615 224.355 556.919 224.684C557.248 225.013 557.413 225.495 557.413 226.128V229.244L556.995 228.408C557.502 227.065 558.287 226.014 559.351 225.254C560.415 224.494 561.694 224.114 563.189 224.114C564.734 224.114 565.988 224.481 566.951 225.216C567.914 225.951 568.572 227.078 568.927 228.598H568.395C568.876 227.205 569.7 226.115 570.865 225.33C572.03 224.519 573.386 224.114 574.931 224.114C576.35 224.114 577.515 224.393 578.427 224.95C579.339 225.482 580.023 226.305 580.479 227.42C580.935 228.509 581.163 229.89 581.163 231.562V241.328C581.163 241.936 580.986 242.417 580.631 242.772C580.302 243.101 579.833 243.266 579.225 243.266C578.617 243.266 578.148 243.101 577.819 242.772C577.49 242.417 577.325 241.936 577.325 241.328V231.752C577.325 230.181 577.046 229.029 576.489 228.294C575.957 227.559 575.07 227.192 573.829 227.192C572.436 227.192 571.334 227.673 570.523 228.636C569.712 229.599 569.307 230.929 569.307 232.626V241.328C569.307 241.936 569.142 242.417 568.813 242.772C568.484 243.101 568.015 243.266 567.407 243.266C566.799 243.266 566.318 243.101 565.963 242.772C565.634 242.417 565.469 241.936 565.469 241.328V231.752C565.469 230.181 565.203 229.029 564.671 228.294C564.139 227.559 563.252 227.192 562.011 227.192C560.618 227.192 559.516 227.673 558.705 228.636C557.92 229.599 557.527 230.929 557.527 232.626V241.328C557.527 242.62 556.881 243.266 555.589 243.266Z" fill="#6B350E"/>
<path d="M428 121V106C428 99.3625 422.637 94 416 94H356C349.362 94 344 99.3625 344 106V121C344 127.638 349.362 133 356 133H359.188C359.188 133.112 359.187 133.225 359.225 133.375L367.963 169H347C345.35 169 344 170.35 344 172V176.5C344 177.325 344.675 178 345.5 178H426.5C427.325 178 428 177.325 428 176.5V172C428 170.35 426.65 169 425 169H404.038L412.962 133.375C413 133.263 413 133.15 413 133H416C422.637 133 428 127.638 428 121ZM347 121V106C347 101.05 351.05 97 356 97H416C420.95 97 425 101.05 425 106V121C425 125.95 420.95 130 416 130H398.75H373.25H356C351.05 130 347 125.95 347 121ZM392 141.025L388.25 141.25C387.013 141.25 386 142.263 386 143.5C386 144.737 387.013 145.75 388.25 145.75L392 145.975V148H380V139H392V141.025ZM401.75 142C402.013 142.112 402.5 142.9 402.5 143.5C402.5 144.1 402.013 144.888 401.75 145L388.363 144.25H388.325H388.25C387.838 144.25 387.5 143.912 387.5 143.5C387.5 143.088 387.838 142.75 388.25 142.75H388.288H388.325L401.75 142ZM392 136H380H374.75V133H397.25V136H392ZM425 175H347V172H425V175ZM401.038 168.625C401 168.738 401 168.85 401 169H371C371 168.887 371 168.775 370.963 168.625L362.225 133H371.75V137.5C371.75 138.325 372.425 139 373.25 139H377V148C377 149.65 378.35 151 380 151H392C393.65 151 395 149.65 395 148V146.125L401.75 146.5C402.987 146.5 404 144.737 404 143.5C404 142.263 402.987 140.5 401.75 140.5L395 140.875V139H398.75C399.575 139 400.25 138.325 400.25 137.5V133H409.962L401.038 168.625Z" fill="#40A2CE"/>
<path d="M386 127C392.638 127 398 121.638 398 115C398 108.362 392.638 103 386 103C379.362 103 374 108.362 374 115C374 121.638 379.362 127 386 127ZM386 106C390.95 106 395 110.05 395 115C395 119.95 390.95 124 386 124C381.05 124 377 119.95 377 115C377 110.05 381.05 106 386 106Z" fill="#40A2CE"/>
<path d="M386 111.625C386.413 111.625 386.75 111.287 386.75 110.875V109.375C386.75 108.962 386.413 108.625 386 108.625C385.587 108.625 385.25 108.962 385.25 109.375V110.875C385.25 111.287 385.587 111.625 386 111.625Z" fill="#40A2CE"/>
<path d="M389.375 115C389.375 115.413 389.712 115.75 390.125 115.75H391.625C392.037 115.75 392.375 115.413 392.375 115C392.375 114.587 392.037 114.25 391.625 114.25H390.125C389.712 114.25 389.375 114.587 389.375 115Z" fill="#40A2CE"/>
<path d="M380.375 115.75H381.875C382.287 115.75 382.625 115.413 382.625 115C382.625 114.587 382.287 114.25 381.875 114.25H380.375C379.962 114.25 379.625 114.587 379.625 115C379.625 115.413 379.962 115.75 380.375 115.75Z" fill="#40A2CE"/>
<path d="M382.475 112.562C382.625 112.712 382.813 112.787 383 112.787C383.188 112.787 383.375 112.712 383.525 112.562C383.825 112.262 383.825 111.812 383.525 111.512L382.475 110.462C382.175 110.162 381.725 110.162 381.425 110.462C381.125 110.762 381.125 111.212 381.425 111.512L382.475 112.562Z" fill="#40A2CE"/>
<path d="M389.525 117.437C389.225 117.137 388.775 117.137 388.475 117.437C388.175 117.737 388.175 118.187 388.475 118.487L389.525 119.537C389.675 119.687 389.862 119.762 390.05 119.762C390.237 119.762 390.425 119.687 390.575 119.537C390.875 119.237 390.875 118.787 390.575 118.487L389.525 117.437Z" fill="#40A2CE"/>
<path d="M382.475 117.438L381.425 118.488C381.125 118.788 381.125 119.238 381.425 119.538C381.575 119.688 381.763 119.763 381.95 119.763C382.138 119.763 382.325 119.688 382.475 119.538L383.525 118.488C383.825 118.188 383.825 117.738 383.525 117.438C383.263 117.175 382.775 117.175 382.475 117.438Z" fill="#40A2CE"/>
<path d="M386 116.5C386.825 116.5 387.5 115.825 387.5 115C387.5 114.85 387.463 114.737 387.463 114.625L390.575 111.512C390.875 111.212 390.875 110.762 390.575 110.462C390.275 110.162 389.825 110.162 389.525 110.462L386.413 113.575C386.3 113.537 386.15 113.537 386.038 113.537C385.213 113.537 384.538 114.212 384.538 115.037C384.5 115.825 385.175 116.5 386 116.5Z" fill="#40A2CE"/>
<path d="M405.5 118H408.5C409.325 118 410 117.325 410 116.5V113.5C410 112.675 409.325 112 408.5 112H405.5C404.675 112 404 112.675 404 113.5V116.5C404 117.325 404.675 118 405.5 118ZM405.5 115H408.5V116.5H405.5V115Z" fill="#40A2CE"/>
<path d="M414.5 118H417.5C418.325 118 419 117.325 419 116.5V113.5C419 112.675 418.325 112 417.5 112H414.5C413.675 112 413 112.675 413 113.5V116.5C413 117.325 413.675 118 414.5 118ZM414.5 113.5H417.5V115H414.5V113.5Z" fill="#40A2CE"/>
<path d="M386 154C386 154 383 156.85 383 158.5C383 160.15 384.35 161.5 386 161.5C387.65 161.5 389 160.15 389 158.5C389 156.85 386 154 386 154Z" fill="#40A2CE"/>
<path d="M28.6867 75.44C25.5667 75.44 22.8867 74.84 20.6467 73.64C18.4067 72.44 16.6867 70.7467 15.4867 68.56C14.3134 66.3733 13.7267 63.8133 13.7267 60.88C13.7267 58.6933 14.0601 56.7067 14.7267 54.92C15.4201 53.1333 16.4067 51.6 17.6867 50.32C18.9934 49.04 20.5667 48.0667 22.4067 47.4C24.2734 46.7067 26.3667 46.36 28.6867 46.36C29.9134 46.36 31.1801 46.5067 32.4867 46.8C33.8201 47.0667 34.9934 47.48 36.0067 48.04C36.7534 48.44 37.2734 48.9467 37.5667 49.56C37.8601 50.1733 37.9534 50.8 37.8467 51.44C37.7667 52.08 37.5401 52.6533 37.1667 53.16C36.7934 53.6667 36.3134 54.0133 35.7267 54.2C35.1401 54.36 34.5001 54.2667 33.8067 53.92C33.0067 53.5467 32.2067 53.2667 31.4067 53.08C30.6334 52.8667 29.8201 52.76 28.9667 52.76C27.3134 52.76 25.9267 53.08 24.8067 53.72C23.7134 54.3333 22.8867 55.24 22.3267 56.44C21.7667 57.64 21.4867 59.12 21.4867 60.88C21.4867 62.64 21.7667 64.1333 22.3267 65.36C22.8867 66.56 23.7134 67.48 24.8067 68.12C25.9267 68.7333 27.3134 69.04 28.9667 69.04C29.6601 69.04 30.4067 68.96 31.2067 68.8C32.0067 68.6133 32.7934 68.3333 33.5667 67.96C34.3667 67.6133 35.0734 67.52 35.6867 67.68C36.3267 67.84 36.8334 68.16 37.2067 68.64C37.6067 69.12 37.8601 69.68 37.9667 70.32C38.0734 70.9333 37.9801 71.5467 37.6867 72.16C37.4201 72.7733 36.9401 73.2667 36.2467 73.64C35.3134 74.2 34.1534 74.64 32.7667 74.96C31.4067 75.28 30.0467 75.44 28.6867 75.44ZM50.0595 75.44C47.8729 75.44 45.9662 75.0267 44.3395 74.2C42.7129 73.3733 41.4462 72.1867 40.5395 70.64C39.6329 69.0933 39.1795 67.2667 39.1795 65.16C39.1795 63.56 39.4329 62.1333 39.9395 60.88C40.4462 59.6 41.1795 58.52 42.1395 57.64C43.0995 56.7333 44.2462 56.0533 45.5795 55.6C46.9129 55.12 48.4062 54.88 50.0595 54.88C52.2462 54.88 54.1529 55.2933 55.7795 56.12C57.4062 56.9467 58.6595 58.1333 59.5395 59.68C60.4462 61.2 60.8995 63.0267 60.8995 65.16C60.8995 66.7333 60.6462 68.16 60.1395 69.44C59.6329 70.72 58.8995 71.8133 57.9395 72.72C57.0062 73.6 55.8595 74.28 54.4995 74.76C53.1662 75.2133 51.6862 75.44 50.0595 75.44ZM50.0595 70.2C50.7795 70.2 51.4195 70.0267 51.9795 69.68C52.5395 69.3067 52.9662 68.76 53.2595 68.04C53.5795 67.2933 53.7395 66.3333 53.7395 65.16C53.7395 63.3733 53.3929 62.0933 52.6995 61.32C52.0062 60.52 51.1262 60.12 50.0595 60.12C49.3395 60.12 48.6995 60.2933 48.1395 60.64C47.5795 60.9867 47.1395 61.5333 46.8195 62.28C46.4995 63 46.3395 63.96 46.3395 65.16C46.3395 66.92 46.6862 68.2 47.3795 69C48.0729 69.8 48.9662 70.2 50.0595 70.2ZM69.2067 75.36C68.0601 75.36 67.1801 75.0533 66.5667 74.44C65.9534 73.8267 65.6467 72.9333 65.6467 71.76V60.56H64.6067C63.7534 60.56 63.0867 60.3333 62.6067 59.88C62.1534 59.4267 61.9267 58.7733 61.9267 57.92C61.9267 57.0667 62.1534 56.4267 62.6067 56C63.0867 55.5467 63.7534 55.32 64.6067 55.32H67.6867L65.6467 57.2V56.08C65.6467 53.12 66.3801 50.9067 67.8467 49.44C69.3401 47.9467 71.5534 47.0533 74.4867 46.76L75.6467 46.64C76.5001 46.5333 77.1801 46.64 77.6867 46.96C78.1934 47.2533 78.5401 47.6533 78.7267 48.16C78.9134 48.64 78.9534 49.1467 78.8467 49.68C78.7667 50.2133 78.5667 50.6667 78.2467 51.04C77.9267 51.4133 77.5001 51.6267 76.9667 51.68L76.4067 51.72C75.0467 51.8267 74.1001 52.12 73.5667 52.6C73.0334 53.08 72.7667 53.7867 72.7667 54.72V56.04L71.8867 55.32H75.0467C75.9267 55.32 76.5934 55.5467 77.0467 56C77.5001 56.4267 77.7267 57.0667 77.7267 57.92C77.7267 58.7733 77.5001 59.4267 77.0467 59.88C76.5934 60.3333 75.9267 60.56 75.0467 60.56H72.7667V71.76C72.7667 74.16 71.5801 75.36 69.2067 75.36ZM84.0895 75.36C82.9429 75.36 82.0629 75.0533 81.4495 74.44C80.8362 73.8267 80.5295 72.9333 80.5295 71.76V60.56H79.4895C78.6362 60.56 77.9695 60.3333 77.4895 59.88C77.0362 59.4267 76.8095 58.7733 76.8095 57.92C76.8095 57.0667 77.0362 56.4267 77.4895 56C77.9695 55.5467 78.6362 55.32 79.4895 55.32H82.5695L80.5295 57.2V56.08C80.5295 53.12 81.2629 50.9067 82.7295 49.44C84.2229 47.9467 86.4362 47.0533 89.3695 46.76L90.5295 46.64C91.3829 46.5333 92.0629 46.64 92.5695 46.96C93.0762 47.2533 93.4229 47.6533 93.6095 48.16C93.7962 48.64 93.8362 49.1467 93.7295 49.68C93.6495 50.2133 93.4495 50.6667 93.1295 51.04C92.8095 51.4133 92.3829 51.6267 91.8495 51.68L91.2895 51.72C89.9295 51.8267 88.9829 52.12 88.4495 52.6C87.9162 53.08 87.6495 53.7867 87.6495 54.72V56.04L86.7695 55.32H89.9295C90.8095 55.32 91.4762 55.5467 91.9295 56C92.3829 56.4267 92.6095 57.0667 92.6095 57.92C92.6095 58.7733 92.3829 59.4267 91.9295 59.88C91.4762 60.3333 90.8095 60.56 89.9295 60.56H87.6495V71.76C87.6495 74.16 86.4629 75.36 84.0895 75.36ZM105.234 75.44C102.834 75.44 100.754 75.0267 98.9936 74.2C97.2603 73.3467 95.9269 72.1467 94.9936 70.6C94.0603 69.0533 93.5936 67.2267 93.5936 65.12C93.5936 63.0933 94.0336 61.32 94.9136 59.8C95.8203 58.2533 97.0469 57.0533 98.5936 56.2C100.167 55.32 101.954 54.88 103.954 54.88C105.42 54.88 106.754 55.12 107.954 55.6C109.154 56.0533 110.18 56.7333 111.034 57.64C111.887 58.52 112.527 59.5867 112.954 60.84C113.407 62.0933 113.634 63.4933 113.634 65.04C113.634 65.5733 113.487 65.9733 113.194 66.24C112.9 66.48 112.434 66.6 111.794 66.6H99.5536V63.24H108.434L107.794 63.76C107.794 62.7733 107.66 61.9733 107.394 61.36C107.127 60.7467 106.727 60.28 106.194 59.96C105.687 59.64 105.047 59.48 104.274 59.48C103.447 59.48 102.727 59.68 102.114 60.08C101.527 60.4533 101.074 61.0133 100.754 61.76C100.434 62.5067 100.274 63.44 100.274 64.56V64.92C100.274 66.8133 100.687 68.1733 101.514 69C102.367 69.8 103.674 70.2 105.434 70.2C106.02 70.2 106.687 70.1333 107.434 70C108.207 69.84 108.94 69.6267 109.634 69.36C110.327 69.0933 110.927 69.0533 111.434 69.24C111.94 69.4 112.327 69.6933 112.594 70.12C112.887 70.52 113.047 70.9867 113.074 71.52C113.1 72.0267 112.98 72.5333 112.714 73.04C112.447 73.52 112.007 73.8933 111.394 74.16C110.46 74.5867 109.46 74.9067 108.394 75.12C107.354 75.3333 106.3 75.44 105.234 75.44ZM127.421 75.44C125.021 75.44 122.941 75.0267 121.181 74.2C119.448 73.3467 118.114 72.1467 117.181 70.6C116.248 69.0533 115.781 67.2267 115.781 65.12C115.781 63.0933 116.221 61.32 117.101 59.8C118.008 58.2533 119.234 57.0533 120.781 56.2C122.354 55.32 124.141 54.88 126.141 54.88C127.608 54.88 128.941 55.12 130.141 55.6C131.341 56.0533 132.368 56.7333 133.221 57.64C134.074 58.52 134.714 59.5867 135.141 60.84C135.594 62.0933 135.821 63.4933 135.821 65.04C135.821 65.5733 135.674 65.9733 135.381 66.24C135.088 66.48 134.621 66.6 133.981 66.6H121.741V63.24H130.621L129.981 63.76C129.981 62.7733 129.848 61.9733 129.581 61.36C129.314 60.7467 128.914 60.28 128.381 59.96C127.874 59.64 127.234 59.48 126.461 59.48C125.634 59.48 124.914 59.68 124.301 60.08C123.714 60.4533 123.261 61.0133 122.941 61.76C122.621 62.5067 122.461 63.44 122.461 64.56V64.92C122.461 66.8133 122.874 68.1733 123.701 69C124.554 69.8 125.861 70.2 127.621 70.2C128.208 70.2 128.874 70.1333 129.621 70C130.394 69.84 131.128 69.6267 131.821 69.36C132.514 69.0933 133.114 69.0533 133.621 69.24C134.128 69.4 134.514 69.6933 134.781 70.12C135.074 70.52 135.234 70.9867 135.261 71.52C135.288 72.0267 135.168 72.5333 134.901 73.04C134.634 73.52 134.194 73.8933 133.581 74.16C132.648 74.5867 131.648 74.9067 130.581 75.12C129.541 75.3333 128.488 75.44 127.421 75.44ZM161.294 75.44C160.227 75.44 159.107 75.36 157.934 75.2C156.787 75.0667 155.694 74.8533 154.654 74.56C153.614 74.2667 152.681 73.92 151.854 73.52C151.134 73.1733 150.627 72.72 150.334 72.16C150.041 71.5733 149.934 70.96 150.014 70.32C150.094 69.68 150.321 69.12 150.694 68.64C151.067 68.1333 151.561 67.8 152.174 67.64C152.787 67.4533 153.481 67.5333 154.254 67.88C155.267 68.36 156.414 68.7333 157.694 69C158.974 69.2667 160.174 69.4 161.294 69.4C163.054 69.4 164.281 69.1733 164.974 68.72C165.694 68.24 166.054 67.6533 166.054 66.96C166.054 66.3467 165.801 65.8533 165.294 65.48C164.814 65.1067 163.947 64.7867 162.694 64.52L158.014 63.52C155.454 62.9867 153.547 62.0533 152.294 60.72C151.041 59.3867 150.414 57.6667 150.414 55.56C150.414 54.1733 150.694 52.92 151.254 51.8C151.841 50.6533 152.654 49.68 153.694 48.88C154.761 48.08 156.014 47.4667 157.454 47.04C158.921 46.5867 160.547 46.36 162.334 46.36C163.721 46.36 165.121 46.52 166.534 46.84C167.974 47.1333 169.214 47.5867 170.254 48.2C170.867 48.52 171.307 48.96 171.574 49.52C171.841 50.08 171.947 50.6667 171.894 51.28C171.841 51.8667 171.627 52.3867 171.254 52.84C170.907 53.2933 170.427 53.6 169.814 53.76C169.227 53.8933 168.521 53.7867 167.694 53.44C166.921 53.0933 166.041 52.84 165.054 52.68C164.094 52.4933 163.161 52.4 162.254 52.4C161.267 52.4 160.427 52.52 159.734 52.76C159.041 52.9733 158.507 53.2933 158.134 53.72C157.787 54.1467 157.614 54.64 157.614 55.2C157.614 55.76 157.841 56.24 158.294 56.64C158.774 57.0133 159.641 57.3333 160.894 57.6L165.534 58.6C168.121 59.16 170.054 60.08 171.334 61.36C172.614 62.64 173.254 64.3067 173.254 66.36C173.254 67.7467 172.974 69 172.414 70.12C171.854 71.24 171.054 72.2 170.014 73C168.974 73.7733 167.721 74.3733 166.254 74.8C164.787 75.2267 163.134 75.44 161.294 75.44ZM179.909 75.36C178.789 75.36 177.922 75.0533 177.309 74.44C176.695 73.8267 176.389 72.9333 176.389 71.76V50.04C176.389 48.8667 176.695 47.9733 177.309 47.36C177.922 46.7467 178.789 46.44 179.909 46.44C181.055 46.44 181.935 46.7467 182.549 47.36C183.189 47.9733 183.509 48.8667 183.509 50.04V58.76H182.869C183.509 57.5067 184.415 56.5467 185.589 55.88C186.789 55.2133 188.149 54.88 189.669 54.88C191.242 54.88 192.535 55.1867 193.549 55.8C194.562 56.3867 195.322 57.32 195.829 58.6C196.335 59.8533 196.589 61.44 196.589 63.36V71.76C196.589 72.9333 196.282 73.8267 195.669 74.44C195.055 75.0533 194.175 75.36 193.029 75.36C191.882 75.36 191.002 75.0533 190.389 74.44C189.775 73.8267 189.469 72.9333 189.469 71.76V63.64C189.469 62.44 189.255 61.5867 188.829 61.08C188.429 60.5733 187.829 60.32 187.029 60.32C185.962 60.32 185.109 60.6667 184.469 61.36C183.829 62.0267 183.509 62.9333 183.509 64.08V71.76C183.509 74.16 182.309 75.36 179.909 75.36ZM210.606 75.44C208.42 75.44 206.513 75.0267 204.886 74.2C203.26 73.3733 201.993 72.1867 201.086 70.64C200.18 69.0933 199.726 67.2667 199.726 65.16C199.726 63.56 199.98 62.1333 200.486 60.88C200.993 59.6 201.726 58.52 202.686 57.64C203.646 56.7333 204.793 56.0533 206.126 55.6C207.46 55.12 208.953 54.88 210.606 54.88C212.793 54.88 214.7 55.2933 216.326 56.12C217.953 56.9467 219.206 58.1333 220.086 59.68C220.993 61.2 221.446 63.0267 221.446 65.16C221.446 66.7333 221.193 68.16 220.686 69.44C220.18 70.72 219.446 71.8133 218.486 72.72C217.553 73.6 216.406 74.28 215.046 74.76C213.713 75.2133 212.233 75.44 210.606 75.44ZM210.606 70.2C211.326 70.2 211.966 70.0267 212.526 69.68C213.086 69.3067 213.513 68.76 213.806 68.04C214.126 67.2933 214.286 66.3333 214.286 65.16C214.286 63.3733 213.94 62.0933 213.246 61.32C212.553 60.52 211.673 60.12 210.606 60.12C209.886 60.12 209.246 60.2933 208.686 60.64C208.126 60.9867 207.686 61.5333 207.366 62.28C207.046 63 206.886 63.96 206.886 65.16C206.886 66.92 207.233 68.2 207.926 69C208.62 69.8 209.513 70.2 210.606 70.2ZM228.229 82.56C227.109 82.56 226.242 82.2533 225.629 81.64C225.016 81.0267 224.709 80.1333 224.709 78.96V58.52C224.709 57.3733 225.002 56.4933 225.589 55.88C226.202 55.2667 227.069 54.96 228.189 54.96C229.336 54.96 230.202 55.2667 230.789 55.88C231.402 56.4933 231.709 57.3733 231.709 58.52V60.84L231.269 58.88C231.642 57.68 232.416 56.72 233.589 56C234.789 55.2533 236.149 54.88 237.669 54.88C239.376 54.88 240.869 55.2933 242.149 56.12C243.456 56.9467 244.469 58.12 245.189 59.64C245.909 61.16 246.269 63 246.269 65.16C246.269 67.2667 245.909 69.0933 245.189 70.64C244.469 72.1867 243.456 73.3733 242.149 74.2C240.869 75.0267 239.376 75.44 237.669 75.44C236.202 75.44 234.882 75.0933 233.709 74.4C232.536 73.7067 231.749 72.8 231.349 71.68H231.829V78.96C231.829 80.1333 231.509 81.0267 230.869 81.64C230.256 82.2533 229.376 82.56 228.229 82.56ZM235.429 70.2C236.149 70.2 236.776 70.0267 237.309 69.68C237.869 69.3067 238.309 68.76 238.629 68.04C238.949 67.2933 239.109 66.3333 239.109 65.16C239.109 63.3733 238.762 62.0933 238.069 61.32C237.376 60.52 236.496 60.12 235.429 60.12C234.709 60.12 234.069 60.2933 233.509 60.64C232.949 60.9867 232.509 61.5333 232.189 62.28C231.869 63 231.709 63.96 231.709 65.16C231.709 66.92 232.056 68.2 232.749 69C233.442 69.8 234.336 70.2 235.429 70.2ZM264.479 75.36C263.359 75.36 262.492 75.0267 261.879 74.36C261.266 73.6933 260.959 72.7333 260.959 71.48V58.84C260.959 57.5867 261.266 56.6267 261.879 55.96C262.492 55.2933 263.359 54.96 264.479 54.96C265.626 54.96 266.506 55.2933 267.119 55.96C267.759 56.6267 268.079 57.5867 268.079 58.84V71.48C268.079 72.7333 267.772 73.6933 267.159 74.36C266.546 75.0267 265.652 75.36 264.479 75.36ZM264.479 52.12C263.226 52.12 262.252 51.8267 261.559 51.24C260.892 50.6533 260.559 49.8 260.559 48.68C260.559 47.5867 260.892 46.7467 261.559 46.16C262.252 45.5733 263.226 45.28 264.479 45.28C265.786 45.28 266.772 45.5733 267.439 46.16C268.106 46.7467 268.439 47.5867 268.439 48.68C268.439 49.8 268.106 50.6533 267.439 51.24C266.772 51.8267 265.786 52.12 264.479 52.12ZM275.729 75.36C274.609 75.36 273.742 75.0533 273.129 74.44C272.516 73.8267 272.209 72.9333 272.209 71.76V58.52C272.209 57.3733 272.502 56.4933 273.089 55.88C273.702 55.2667 274.569 54.96 275.689 54.96C276.809 54.96 277.662 55.2667 278.249 55.88C278.836 56.4933 279.129 57.3733 279.129 58.52V60.4L278.689 58.76C279.329 57.5067 280.236 56.5467 281.409 55.88C282.609 55.2133 283.969 54.88 285.489 54.88C287.062 54.88 288.356 55.1867 289.369 55.8C290.382 56.3867 291.142 57.32 291.649 58.6C292.156 59.8533 292.409 61.44 292.409 63.36V71.76C292.409 72.9333 292.102 73.8267 291.489 74.44C290.876 75.0533 289.996 75.36 288.849 75.36C287.702 75.36 286.822 75.0533 286.209 74.44C285.596 73.8267 285.289 72.9333 285.289 71.76V63.64C285.289 62.44 285.076 61.5867 284.649 61.08C284.249 60.5733 283.649 60.32 282.849 60.32C281.782 60.32 280.929 60.6667 280.289 61.36C279.649 62.0267 279.329 62.9333 279.329 64.08V71.76C279.329 74.16 278.129 75.36 275.729 75.36ZM319.352 75.36C318.365 75.36 317.565 75.1333 316.952 74.68C316.339 74.2 315.859 73.4667 315.512 72.48L307.712 50.76C307.285 49.56 307.352 48.5467 307.912 47.72C308.499 46.8667 309.525 46.44 310.992 46.44C311.979 46.44 312.752 46.68 313.312 47.16C313.872 47.6133 314.312 48.3333 314.632 49.32L320.592 67.2H318.712L325.112 49.32C325.485 48.3333 325.952 47.6133 326.512 47.16C327.072 46.68 327.792 46.44 328.672 46.44C329.552 46.44 330.259 46.68 330.792 47.16C331.325 47.6133 331.765 48.3467 332.112 49.36L338.112 67.2H336.512L342.632 49.32C342.952 48.3333 343.379 47.6133 343.912 47.16C344.472 46.68 345.245 46.44 346.232 46.44C347.459 46.44 348.352 46.8667 348.912 47.72C349.499 48.5467 349.565 49.56 349.112 50.76L341.232 72.52C340.885 73.48 340.405 74.2 339.792 74.68C339.205 75.1333 338.419 75.36 337.432 75.36C336.419 75.36 335.605 75.1333 334.992 74.68C334.405 74.2 333.939 73.4667 333.592 72.48L327.952 56.64H328.952L323.192 72.52C322.819 73.48 322.339 74.2 321.752 74.68C321.165 75.1333 320.365 75.36 319.352 75.36ZM358.307 75.36C357.187 75.36 356.32 75.0267 355.707 74.36C355.094 73.6933 354.787 72.7333 354.787 71.48V58.84C354.787 57.5867 355.094 56.6267 355.707 55.96C356.32 55.2933 357.187 54.96 358.307 54.96C359.454 54.96 360.334 55.2933 360.947 55.96C361.587 56.6267 361.907 57.5867 361.907 58.84V71.48C361.907 72.7333 361.6 73.6933 360.987 74.36C360.374 75.0267 359.48 75.36 358.307 75.36ZM358.307 52.12C357.054 52.12 356.08 51.8267 355.387 51.24C354.72 50.6533 354.387 49.8 354.387 48.68C354.387 47.5867 354.72 46.7467 355.387 46.16C356.08 45.5733 357.054 45.28 358.307 45.28C359.614 45.28 360.6 45.5733 361.267 46.16C361.934 46.7467 362.267 47.5867 362.267 48.68C362.267 49.8 361.934 50.6533 361.267 51.24C360.6 51.8267 359.614 52.12 358.307 52.12ZM373.517 75.44C370.957 75.44 369.064 74.76 367.837 73.4C366.637 72.0133 366.037 69.9333 366.037 67.16V50.04C366.037 48.8667 366.344 47.9733 366.957 47.36C367.57 46.7467 368.437 46.44 369.557 46.44C370.704 46.44 371.584 46.7467 372.197 47.36C372.837 47.9733 373.157 48.8667 373.157 50.04V66.92C373.157 67.9067 373.344 68.6267 373.717 69.08C374.117 69.5333 374.624 69.76 375.237 69.76C375.424 69.76 375.61 69.7467 375.797 69.72C376.01 69.6667 376.237 69.6267 376.477 69.6C376.93 69.6 377.264 69.7733 377.477 70.12C377.717 70.4667 377.837 71.1733 377.837 72.24C377.837 73.1733 377.65 73.88 377.277 74.36C376.904 74.8133 376.33 75.1067 375.557 75.24C375.344 75.2667 375.037 75.3067 374.637 75.36C374.237 75.4133 373.864 75.44 373.517 75.44ZM387.423 75.44C384.863 75.44 382.97 74.76 381.743 73.4C380.543 72.0133 379.943 69.9333 379.943 67.16V50.04C379.943 48.8667 380.25 47.9733 380.863 47.36C381.477 46.7467 382.343 46.44 383.463 46.44C384.61 46.44 385.49 46.7467 386.103 47.36C386.743 47.9733 387.063 48.8667 387.063 50.04V66.92C387.063 67.9067 387.25 68.6267 387.623 69.08C388.023 69.5333 388.53 69.76 389.143 69.76C389.33 69.76 389.517 69.7467 389.703 69.72C389.917 69.6667 390.143 69.6267 390.383 69.6C390.837 69.6 391.17 69.7733 391.383 70.12C391.623 70.4667 391.743 71.1733 391.743 72.24C391.743 73.1733 391.557 73.88 391.183 74.36C390.81 74.8133 390.237 75.1067 389.463 75.24C389.25 75.2667 388.943 75.3067 388.543 75.36C388.143 75.4133 387.77 75.44 387.423 75.44ZM397.37 75.36C396.25 75.36 395.383 75.0267 394.77 74.36C394.156 73.6933 393.85 72.7333 393.85 71.48V58.84C393.85 57.5867 394.156 56.6267 394.77 55.96C395.383 55.2933 396.25 54.96 397.37 54.96C398.516 54.96 399.396 55.2933 400.01 55.96C400.65 56.6267 400.97 57.5867 400.97 58.84V71.48C400.97 72.7333 400.663 73.6933 400.05 74.36C399.436 75.0267 398.543 75.36 397.37 75.36ZM397.37 52.12C396.116 52.12 395.143 51.8267 394.45 51.24C393.783 50.6533 393.45 49.8 393.45 48.68C393.45 47.5867 393.783 46.7467 394.45 46.16C395.143 45.5733 396.116 45.28 397.37 45.28C398.676 45.28 399.663 45.5733 400.33 46.16C400.996 46.7467 401.33 47.5867 401.33 48.68C401.33 49.8 400.996 50.6533 400.33 51.24C399.663 51.8267 398.676 52.12 397.37 52.12ZM411.94 75.44C410.42 75.44 409.073 75.16 407.9 74.6C406.753 74.04 405.846 73.28 405.18 72.32C404.54 71.3333 404.22 70.2133 404.22 68.96C404.22 67.52 404.593 66.3867 405.34 65.56C406.086 64.7333 407.286 64.1467 408.94 63.8C410.593 63.4267 412.793 63.24 415.54 63.24H417.74V66.6H415.54C414.5 66.6 413.633 66.68 412.94 66.84C412.273 66.9733 411.78 67.2 411.46 67.52C411.14 67.8133 410.98 68.2 410.98 68.68C410.98 69.2933 411.193 69.8 411.62 70.2C412.073 70.6 412.713 70.8 413.54 70.8C414.206 70.8 414.793 70.6533 415.3 70.36C415.833 70.0667 416.26 69.6667 416.58 69.16C416.9 68.6267 417.06 68.0133 417.06 67.32V62.68C417.06 61.72 416.806 61.04 416.3 60.64C415.82 60.24 414.98 60.04 413.78 60.04C413.14 60.04 412.42 60.12 411.62 60.28C410.82 60.4133 409.926 60.6667 408.94 61.04C408.22 61.3067 407.606 61.3467 407.1 61.16C406.593 60.9733 406.193 60.6533 405.9 60.2C405.633 59.7467 405.5 59.2533 405.5 58.72C405.526 58.1867 405.7 57.68 406.02 57.2C406.366 56.72 406.886 56.3467 407.58 56.08C408.86 55.6 410.033 55.28 411.1 55.12C412.193 54.96 413.193 54.88 414.1 54.88C416.286 54.88 418.086 55.2 419.5 55.84C420.94 56.4533 422.006 57.4133 422.7 58.72C423.42 60 423.78 61.6533 423.78 63.68V71.76C423.78 72.9333 423.5 73.8267 422.94 74.44C422.38 75.0533 421.566 75.36 420.5 75.36C419.406 75.36 418.566 75.0533 417.98 74.44C417.42 73.8267 417.14 72.9333 417.14 71.76V70.72L417.38 71.28C417.246 72.1333 416.94 72.8667 416.46 73.48C415.98 74.0933 415.353 74.5733 414.58 74.92C413.806 75.2667 412.926 75.44 411.94 75.44ZM431.434 75.36C430.314 75.36 429.447 75.0533 428.834 74.44C428.221 73.8267 427.914 72.9333 427.914 71.76V58.52C427.914 57.3733 428.207 56.4933 428.794 55.88C429.407 55.2667 430.274 54.96 431.394 54.96C432.514 54.96 433.367 55.2667 433.954 55.88C434.541 56.4933 434.834 57.3733 434.834 58.52V60.72L434.394 58.76C434.954 57.5867 435.781 56.6533 436.874 55.96C437.994 55.24 439.314 54.88 440.834 54.88C442.274 54.88 443.501 55.2267 444.514 55.92C445.554 56.6133 446.301 57.6667 446.754 59.08H446.194C446.807 57.7733 447.727 56.7467 448.954 56C450.181 55.2533 451.541 54.88 453.034 54.88C454.581 54.88 455.847 55.1867 456.834 55.8C457.821 56.3867 458.554 57.32 459.034 58.6C459.541 59.8533 459.794 61.44 459.794 63.36V71.76C459.794 72.9333 459.474 73.8267 458.834 74.44C458.221 75.0533 457.341 75.36 456.194 75.36C455.074 75.36 454.207 75.0533 453.594 74.44C452.981 73.8267 452.674 72.9333 452.674 71.76V63.56C452.674 62.4133 452.501 61.5867 452.154 61.08C451.807 60.5733 451.234 60.32 450.434 60.32C449.447 60.32 448.687 60.6667 448.154 61.36C447.647 62.0533 447.394 63.04 447.394 64.32V71.76C447.394 72.9333 447.087 73.8267 446.474 74.44C445.861 75.0533 444.981 75.36 443.834 75.36C442.687 75.36 441.807 75.0533 441.194 74.44C440.581 73.8267 440.274 72.9333 440.274 71.76V63.56C440.274 62.4133 440.101 61.5867 439.754 61.08C439.407 60.5733 438.834 60.32 438.034 60.32C437.074 60.32 436.327 60.6667 435.794 61.36C435.287 62.0533 435.034 63.04 435.034 64.32V71.76C435.034 74.16 433.834 75.36 431.434 75.36ZM471.768 75.44C470.594 75.44 469.394 75.3467 468.168 75.16C466.968 75 465.874 74.6933 464.888 74.24C464.221 73.9733 463.741 73.6133 463.448 73.16C463.181 72.7067 463.048 72.2267 463.048 71.72C463.074 71.2133 463.221 70.76 463.488 70.36C463.781 69.9333 464.154 69.64 464.608 69.48C465.088 69.2933 465.621 69.3067 466.208 69.52C467.328 69.92 468.328 70.2133 469.208 70.4C470.114 70.56 470.981 70.64 471.808 70.64C472.794 70.64 473.501 70.5067 473.928 70.24C474.354 69.9467 474.568 69.5733 474.568 69.12C474.568 68.72 474.421 68.4133 474.128 68.2C473.861 67.9867 473.474 67.84 472.968 67.76L468.528 67.04C466.874 66.7467 465.594 66.1467 464.688 65.24C463.781 64.3067 463.328 63.0933 463.328 61.6C463.328 60.2133 463.714 59.0267 464.488 58.04C465.288 57.0267 466.368 56.2533 467.728 55.72C469.114 55.16 470.701 54.88 472.488 54.88C473.688 54.88 474.781 54.9733 475.768 55.16C476.754 55.32 477.714 55.6267 478.648 56.08C479.234 56.32 479.648 56.6667 479.888 57.12C480.128 57.5733 480.221 58.0533 480.168 58.56C480.114 59.04 479.941 59.4933 479.648 59.92C479.381 60.32 479.008 60.6 478.528 60.76C478.048 60.8933 477.488 60.8533 476.848 60.64C475.968 60.2933 475.181 60.04 474.488 59.88C473.821 59.72 473.194 59.64 472.608 59.64C471.514 59.64 470.741 59.7867 470.288 60.08C469.834 60.3733 469.608 60.7467 469.608 61.2C469.608 61.5467 469.728 61.84 469.968 62.08C470.208 62.2933 470.581 62.44 471.088 62.52L475.528 63.28C477.234 63.5467 478.541 64.1333 479.448 65.04C480.381 65.92 480.848 67.12 480.848 68.64C480.848 70.8 480.021 72.48 478.368 73.68C476.714 74.8533 474.514 75.44 471.768 75.44ZM496.731 75.44C495.211 75.44 493.851 75.08 492.651 74.36C491.478 73.6133 490.705 72.64 490.331 71.44L490.771 69.8V71.76C490.771 72.9333 490.465 73.8267 489.851 74.44C489.265 75.0533 488.411 75.36 487.291 75.36C486.145 75.36 485.265 75.0533 484.651 74.44C484.065 73.8267 483.771 72.9333 483.771 71.76V50.04C483.771 48.8667 484.078 47.9733 484.691 47.36C485.305 46.7467 486.171 46.44 487.291 46.44C488.438 46.44 489.318 46.7467 489.931 47.36C490.571 47.9733 490.891 48.8667 490.891 50.04V58.6H490.411C490.811 57.5067 491.598 56.6133 492.771 55.92C493.945 55.2267 495.265 54.88 496.731 54.88C498.438 54.88 499.931 55.2933 501.211 56.12C502.518 56.9467 503.531 58.12 504.251 59.64C504.971 61.16 505.331 63 505.331 65.16C505.331 67.2667 504.971 69.0933 504.251 70.64C503.531 72.1867 502.518 73.3733 501.211 74.2C499.931 75.0267 498.438 75.44 496.731 75.44ZM494.491 70.2C495.211 70.2 495.838 70.0267 496.371 69.68C496.931 69.3067 497.371 68.76 497.691 68.04C498.011 67.2933 498.171 66.3333 498.171 65.16C498.171 63.3733 497.825 62.0933 497.131 61.32C496.438 60.52 495.558 60.12 494.491 60.12C493.771 60.12 493.131 60.2933 492.571 60.64C492.011 60.9867 491.571 61.5333 491.251 62.28C490.931 63 490.771 63.96 490.771 65.16C490.771 66.92 491.118 68.2 491.811 69C492.505 69.8 493.398 70.2 494.491 70.2ZM515.936 75.44C514.229 75.44 512.829 75.1333 511.736 74.52C510.643 73.88 509.816 72.9333 509.256 71.68C508.723 70.4267 508.456 68.84 508.456 66.92V58.52C508.456 57.3467 508.763 56.4667 509.376 55.88C509.989 55.2667 510.869 54.96 512.016 54.96C513.163 54.96 514.043 55.2667 514.656 55.88C515.269 56.4667 515.576 57.3467 515.576 58.52V67.12C515.576 68.08 515.776 68.8 516.176 69.28C516.576 69.76 517.203 70 518.056 70C519.016 70 519.803 69.6533 520.416 68.96C521.029 68.2667 521.336 67.3467 521.336 66.2V58.52C521.336 57.3467 521.643 56.4667 522.256 55.88C522.869 55.2667 523.749 54.96 524.896 54.96C526.043 54.96 526.923 55.2667 527.536 55.88C528.149 56.4667 528.456 57.3467 528.456 58.52V71.76C528.456 74.16 527.309 75.36 525.016 75.36C523.896 75.36 523.029 75.0533 522.416 74.44C521.803 73.8267 521.496 72.9333 521.496 71.76V69.44L522.136 71.4C521.549 72.7067 520.723 73.7067 519.656 74.4C518.616 75.0933 517.376 75.44 515.936 75.44ZM536.24 75.36C535.066 75.36 534.16 75.0533 533.52 74.44C532.906 73.8267 532.6 72.9333 532.6 71.76V58.52C532.6 57.3733 532.893 56.4933 533.48 55.88C534.093 55.2667 534.96 54.96 536.08 54.96C537.2 54.96 538.053 55.2667 538.64 55.88C539.226 56.4933 539.52 57.3733 539.52 58.52V60.16H539.12C539.386 58.56 540.066 57.2933 541.16 56.36C542.28 55.4267 543.666 54.9333 545.32 54.88C546.093 54.8533 546.666 55.0533 547.04 55.48C547.44 55.88 547.653 56.64 547.68 57.76C547.68 58.72 547.48 59.48 547.08 60.04C546.68 60.6 545.92 60.9333 544.8 61.04L543.88 61.12C542.466 61.2533 541.44 61.6533 540.8 62.32C540.16 62.96 539.84 63.92 539.84 65.2V71.76C539.84 72.9333 539.533 73.8267 538.92 74.44C538.306 75.0533 537.413 75.36 536.24 75.36ZM559.352 82.64C557.885 82.64 556.512 82.5333 555.232 82.32C553.952 82.1333 552.845 81.8533 551.912 81.48C551.138 81.2133 550.592 80.8267 550.272 80.32C549.952 79.8133 549.805 79.28 549.832 78.72C549.858 78.16 550.005 77.6533 550.272 77.2C550.565 76.7467 550.952 76.4133 551.432 76.2C551.912 76.0133 552.445 76.0267 553.032 76.24C554.205 76.72 555.272 77.0267 556.232 77.16C557.192 77.32 558.005 77.4 558.672 77.4C560.298 77.4 561.512 77.0533 562.312 76.36C563.138 75.6933 563.552 74.64 563.552 73.2V70.68H563.872C563.472 71.8 562.658 72.72 561.432 73.44C560.205 74.1333 558.872 74.48 557.432 74.48C555.672 74.48 554.138 74.08 552.832 73.28C551.525 72.4533 550.498 71.3067 549.752 69.84C549.032 68.3733 548.672 66.6533 548.672 64.68C548.672 63.1867 548.885 61.84 549.312 60.64C549.738 59.44 550.325 58.4133 551.072 57.56C551.845 56.7067 552.765 56.0533 553.832 55.6C554.925 55.12 556.125 54.88 557.432 54.88C558.925 54.88 560.258 55.2267 561.432 55.92C562.632 56.6133 563.432 57.52 563.832 58.64L563.432 60.28V58.52C563.432 57.3733 563.738 56.4933 564.352 55.88C564.992 55.2667 565.872 54.96 566.992 54.96C568.112 54.96 568.965 55.2667 569.552 55.88C570.165 56.4933 570.472 57.3733 570.472 58.52V72.36C570.472 75.7733 569.512 78.3333 567.592 80.04C565.672 81.7733 562.925 82.64 559.352 82.64ZM559.632 69.24C560.432 69.24 561.112 69.0667 561.672 68.72C562.232 68.3467 562.672 67.8267 562.992 67.16C563.312 66.4667 563.472 65.64 563.472 64.68C563.472 63.24 563.125 62.12 562.432 61.32C561.738 60.52 560.805 60.12 559.632 60.12C558.885 60.12 558.218 60.3067 557.632 60.68C557.045 61.0267 556.592 61.5467 556.272 62.24C555.978 62.9067 555.832 63.72 555.832 64.68C555.832 66.12 556.178 67.24 556.872 68.04C557.565 68.84 558.485 69.24 559.632 69.24ZM578.991 79.8C578.564 80.3867 578.084 80.7067 577.551 80.76C577.044 80.84 576.604 80.7333 576.231 80.44C575.857 80.1733 575.644 79.7867 575.591 79.28C575.564 78.8 575.791 78.2667 576.271 77.68C576.937 76.9067 577.377 76.1333 577.591 75.36C577.804 74.5867 577.911 73.8933 577.911 73.28L578.151 75.24C576.924 75.24 575.937 74.8933 575.191 74.2C574.444 73.48 574.071 72.52 574.071 71.32C574.071 70.1733 574.417 69.2533 575.111 68.56C575.831 67.84 576.791 67.48 577.991 67.48C579.244 67.48 580.217 67.9067 580.911 68.76C581.604 69.5867 581.951 70.7467 581.951 72.24C581.951 72.9867 581.871 73.7467 581.711 74.52C581.577 75.2933 581.297 76.1067 580.871 76.96C580.471 77.84 579.844 78.7867 578.991 79.8ZM601.295 75C600.041 75 599.081 74.68 598.415 74.04C597.775 73.3733 597.455 72.4267 597.455 71.2V50.6C597.455 49.3733 597.775 48.44 598.415 47.8C599.081 47.1333 600.041 46.8 601.295 46.8H611.055C613.081 46.8 614.801 47.1067 616.215 47.72C617.655 48.3067 618.748 49.1467 619.495 50.24C620.241 51.3333 620.615 52.6133 620.615 54.08C620.615 55.7333 620.135 57.1467 619.175 58.32C618.241 59.4933 616.961 60.2933 615.335 60.72V60.08C617.255 60.4267 618.735 61.2 619.775 62.4C620.841 63.6 621.375 65.1333 621.375 67C621.375 69.48 620.481 71.44 618.695 72.88C616.935 74.2933 614.521 75 611.455 75H601.295ZM604.495 69.6H610.455C611.815 69.6 612.801 69.3467 613.415 68.84C614.055 68.3067 614.375 67.52 614.375 66.48C614.375 65.44 614.055 64.6667 613.415 64.16C612.801 63.6533 611.815 63.4 610.455 63.4H604.495V69.6ZM604.495 58H609.735C611.068 58 612.041 57.76 612.655 57.28C613.295 56.8 613.615 56.0667 613.615 55.08C613.615 54.0933 613.295 53.3733 612.655 52.92C612.041 52.44 611.068 52.2 609.735 52.2H604.495V58ZM628.7 75.36C627.527 75.36 626.62 75.0533 625.98 74.44C625.367 73.8267 625.06 72.9333 625.06 71.76V58.52C625.06 57.3733 625.354 56.4933 625.94 55.88C626.554 55.2667 627.42 54.96 628.54 54.96C629.66 54.96 630.514 55.2667 631.1 55.88C631.687 56.4933 631.98 57.3733 631.98 58.52V60.16H631.58C631.847 58.56 632.527 57.2933 633.62 56.36C634.74 55.4267 636.127 54.9333 637.78 54.88C638.554 54.8533 639.127 55.0533 639.5 55.48C639.9 55.88 640.114 56.64 640.14 57.76C640.14 58.72 639.94 59.48 639.54 60.04C639.14 60.6 638.38 60.9333 637.26 61.04L636.34 61.12C634.927 61.2533 633.9 61.6533 633.26 62.32C632.62 62.96 632.3 63.92 632.3 65.2V71.76C632.3 72.9333 631.994 73.8267 631.38 74.44C630.767 75.0533 629.874 75.36 628.7 75.36ZM652.013 75.44C649.826 75.44 647.919 75.0267 646.293 74.2C644.666 73.3733 643.399 72.1867 642.493 70.64C641.586 69.0933 641.133 67.2667 641.133 65.16C641.133 63.56 641.386 62.1333 641.893 60.88C642.399 59.6 643.133 58.52 644.093 57.64C645.053 56.7333 646.199 56.0533 647.533 55.6C648.866 55.12 650.359 54.88 652.013 54.88C654.199 54.88 656.106 55.2933 657.733 56.12C659.359 56.9467 660.613 58.1333 661.493 59.68C662.399 61.2 662.853 63.0267 662.853 65.16C662.853 66.7333 662.599 68.16 662.093 69.44C661.586 70.72 660.853 71.8133 659.893 72.72C658.959 73.6 657.813 74.28 656.453 74.76C655.119 75.2133 653.639 75.44 652.013 75.44ZM652.013 70.2C652.733 70.2 653.373 70.0267 653.933 69.68C654.493 69.3067 654.919 68.76 655.213 68.04C655.533 67.2933 655.693 66.3333 655.693 65.16C655.693 63.3733 655.346 62.0933 654.653 61.32C653.959 60.52 653.079 60.12 652.013 60.12C651.293 60.12 650.653 60.2933 650.093 60.64C649.533 60.9867 649.093 61.5333 648.773 62.28C648.453 63 648.293 63.96 648.293 65.16C648.293 66.92 648.639 68.2 649.333 69C650.026 69.8 650.919 70.2 652.013 70.2ZM676.075 75.44C673.888 75.44 671.982 75.0267 670.355 74.2C668.728 73.3733 667.462 72.1867 666.555 70.64C665.648 69.0933 665.195 67.2667 665.195 65.16C665.195 63.56 665.448 62.1333 665.955 60.88C666.462 59.6 667.195 58.52 668.155 57.64C669.115 56.7333 670.262 56.0533 671.595 55.6C672.928 55.12 674.422 54.88 676.075 54.88C678.262 54.88 680.168 55.2933 681.795 56.12C683.422 56.9467 684.675 58.1333 685.555 59.68C686.462 61.2 686.915 63.0267 686.915 65.16C686.915 66.7333 686.662 68.16 686.155 69.44C685.648 70.72 684.915 71.8133 683.955 72.72C683.022 73.6 681.875 74.28 680.515 74.76C679.182 75.2133 677.702 75.44 676.075 75.44ZM676.075 70.2C676.795 70.2 677.435 70.0267 677.995 69.68C678.555 69.3067 678.982 68.76 679.275 68.04C679.595 67.2933 679.755 66.3333 679.755 65.16C679.755 63.3733 679.408 62.0933 678.715 61.32C678.022 60.52 677.142 60.12 676.075 60.12C675.355 60.12 674.715 60.2933 674.155 60.64C673.595 60.9867 673.155 61.5333 672.835 62.28C672.515 63 672.355 63.96 672.355 65.16C672.355 66.92 672.702 68.2 673.395 69C674.088 69.8 674.982 70.2 676.075 70.2ZM693.698 75.36C692.578 75.36 691.711 75.0533 691.098 74.44C690.484 73.8267 690.178 72.9333 690.178 71.76V50.04C690.178 48.8667 690.484 47.9733 691.098 47.36C691.711 46.7467 692.578 46.44 693.698 46.44C694.844 46.44 695.724 46.7467 696.338 47.36C696.978 47.9733 697.298 48.8667 697.298 50.04V63.24H697.378L702.258 57.32C702.924 56.52 703.538 55.9333 704.098 55.56C704.684 55.16 705.471 54.96 706.458 54.96C707.444 54.96 708.204 55.2 708.738 55.68C709.271 56.16 709.551 56.76 709.578 57.48C709.604 58.2 709.311 58.92 708.698 59.64L703.418 65.88V63.4L709.338 70.84C709.924 71.5867 710.164 72.32 710.058 73.04C709.951 73.7333 709.604 74.2933 709.018 74.72C708.458 75.1467 707.738 75.36 706.858 75.36C705.791 75.36 704.938 75.1733 704.298 74.8C703.658 74.4 703.018 73.7867 702.378 72.96L697.378 66.8H697.298V71.76C697.298 74.16 696.098 75.36 693.698 75.36ZM720.861 75.44C718.301 75.44 716.407 74.76 715.181 73.4C713.981 72.0133 713.381 69.9333 713.381 67.16V50.04C713.381 48.8667 713.687 47.9733 714.301 47.36C714.914 46.7467 715.781 46.44 716.901 46.44C718.047 46.44 718.927 46.7467 719.541 47.36C720.181 47.9733 720.501 48.8667 720.501 50.04V66.92C720.501 67.9067 720.687 68.6267 721.061 69.08C721.461 69.5333 721.967 69.76 722.581 69.76C722.767 69.76 722.954 69.7467 723.141 69.72C723.354 69.6667 723.581 69.6267 723.821 69.6C724.274 69.6 724.607 69.7733 724.821 70.12C725.061 70.4667 725.181 71.1733 725.181 72.24C725.181 73.1733 724.994 73.88 724.621 74.36C724.247 74.8133 723.674 75.1067 722.901 75.24C722.687 75.2667 722.381 75.3067 721.981 75.36C721.581 75.4133 721.207 75.44 720.861 75.44ZM732.46 82.56C731.633 82.56 730.967 82.3467 730.46 81.92C729.953 81.4933 729.633 80.9333 729.5 80.24C729.393 79.5467 729.513 78.8133 729.86 78.04L732.54 72.24V75.12L725.7 59.48C725.353 58.68 725.233 57.9333 725.34 57.24C725.473 56.5467 725.833 56 726.42 55.6C727.007 55.1733 727.807 54.96 728.82 54.96C729.673 54.96 730.353 55.16 730.86 55.56C731.393 55.9333 731.873 56.68 732.3 57.8L736.3 68.2H734.94L739.18 57.76C739.607 56.6667 740.087 55.9333 740.62 55.56C741.18 55.16 741.927 54.96 742.86 54.96C743.66 54.96 744.3 55.1733 744.78 55.6C745.26 56 745.553 56.5467 745.66 57.24C745.767 57.9333 745.647 58.68 745.3 59.48L736.22 79.88C735.74 80.9467 735.207 81.6533 734.62 82C734.06 82.3733 733.34 82.56 732.46 82.56ZM751.901 75.36C750.781 75.36 749.914 75.0533 749.301 74.44C748.687 73.8267 748.381 72.9333 748.381 71.76V58.52C748.381 57.3733 748.674 56.4933 749.261 55.88C749.874 55.2667 750.741 54.96 751.861 54.96C752.981 54.96 753.834 55.2667 754.421 55.88C755.007 56.4933 755.301 57.3733 755.301 58.52V60.4L754.861 58.76C755.501 57.5067 756.407 56.5467 757.581 55.88C758.781 55.2133 760.141 54.88 761.661 54.88C763.234 54.88 764.527 55.1867 765.541 55.8C766.554 56.3867 767.314 57.32 767.821 58.6C768.327 59.8533 768.581 61.44 768.581 63.36V71.76C768.581 72.9333 768.274 73.8267 767.661 74.44C767.047 75.0533 766.167 75.36 765.021 75.36C763.874 75.36 762.994 75.0533 762.381 74.44C761.767 73.8267 761.461 72.9333 761.461 71.76V63.64C761.461 62.44 761.247 61.5867 760.821 61.08C760.421 60.5733 759.821 60.32 759.021 60.32C757.954 60.32 757.101 60.6667 756.461 61.36C755.821 62.0267 755.501 62.9333 755.501 64.08V71.76C755.501 74.16 754.301 75.36 751.901 75.36Z" fill="#6B350E"/>
<path d="M190.609 25.175C190.193 25.175 189.868 25.0583 189.634 24.825C189.418 24.5917 189.309 24.2583 189.309 23.825V15.9L189.884 17.55L183.709 8.975C183.526 8.725 183.443 8.46667 183.459 8.2C183.476 7.91667 183.584 7.68333 183.784 7.5C184.001 7.3 184.284 7.2 184.634 7.2C184.901 7.2 185.143 7.26667 185.359 7.4C185.593 7.53333 185.809 7.74167 186.009 8.025L190.959 14.9H190.359L195.309 8.025C195.526 7.725 195.734 7.51667 195.934 7.4C196.134 7.26667 196.384 7.2 196.684 7.2C197.034 7.2 197.301 7.29167 197.484 7.475C197.684 7.64167 197.784 7.86667 197.784 8.15C197.801 8.41667 197.701 8.7 197.484 9L191.359 17.55L191.884 15.9V23.825C191.884 24.725 191.459 25.175 190.609 25.175ZM206.797 25.225C205.13 25.225 203.672 24.8583 202.422 24.125C201.188 23.375 200.23 22.325 199.547 20.975C198.88 19.6083 198.547 18.0083 198.547 16.175C198.547 14.7917 198.738 13.55 199.122 12.45C199.505 11.3333 200.055 10.3833 200.772 9.6C201.488 8.8 202.355 8.19167 203.372 7.775C204.388 7.35833 205.53 7.15 206.797 7.15C208.48 7.15 209.938 7.51667 211.172 8.25C212.405 8.98333 213.355 10.025 214.022 11.375C214.705 12.725 215.047 14.3167 215.047 16.15C215.047 17.5333 214.855 18.7833 214.472 19.9C214.088 21.0167 213.53 21.975 212.797 22.775C212.08 23.575 211.213 24.1833 210.197 24.6C209.18 25.0167 208.047 25.225 206.797 25.225ZM206.797 22.975C207.963 22.975 208.955 22.7083 209.772 22.175C210.605 21.6417 211.238 20.8667 211.672 19.85C212.122 18.8333 212.347 17.6083 212.347 16.175C212.347 14.025 211.863 12.3583 210.897 11.175C209.93 9.99167 208.563 9.4 206.797 9.4C205.63 9.4 204.63 9.66667 203.797 10.2C202.98 10.7167 202.347 11.4833 201.897 12.5C201.463 13.5167 201.247 14.7417 201.247 16.175C201.247 18.3083 201.73 19.975 202.697 21.175C203.68 22.375 205.047 22.975 206.797 22.975ZM225.656 25.225C224.473 25.225 223.431 25.075 222.531 24.775C221.631 24.4583 220.873 23.9917 220.256 23.375C219.656 22.7583 219.198 21.9917 218.881 21.075C218.565 20.1583 218.406 19.1 218.406 17.9V8.5C218.406 8.06667 218.515 7.74167 218.731 7.525C218.965 7.30833 219.29 7.2 219.706 7.2C220.123 7.2 220.44 7.30833 220.656 7.525C220.89 7.74167 221.006 8.06667 221.006 8.5V17.85C221.006 19.5667 221.398 20.85 222.181 21.7C222.981 22.55 224.14 22.975 225.656 22.975C227.19 22.975 228.348 22.55 229.131 21.7C229.915 20.85 230.306 19.5667 230.306 17.85V8.5C230.306 8.06667 230.415 7.74167 230.631 7.525C230.865 7.30833 231.181 7.2 231.581 7.2C231.998 7.2 232.315 7.30833 232.531 7.525C232.748 7.74167 232.856 8.06667 232.856 8.5V17.9C232.856 19.5 232.581 20.85 232.031 21.95C231.498 23.0333 230.698 23.85 229.631 24.4C228.565 24.95 227.24 25.225 225.656 25.225ZM238.166 25.175C237.75 25.175 237.425 25.0583 237.191 24.825C236.975 24.5917 236.866 24.2667 236.866 23.85V8.7C236.866 8.26667 236.983 7.94167 237.216 7.725C237.45 7.49167 237.775 7.375 238.191 7.375H244.166C246.066 7.375 247.533 7.825 248.566 8.725C249.6 9.625 250.116 10.9 250.116 12.55C250.116 13.6167 249.883 14.5333 249.416 15.3C248.95 16.0667 248.266 16.65 247.366 17.05C246.483 17.45 245.416 17.65 244.166 17.65L244.391 17.3H245.041C245.708 17.3 246.283 17.4667 246.766 17.8C247.266 18.1333 247.716 18.6667 248.116 19.4L250.266 23.4C250.433 23.7 250.508 23.9917 250.491 24.275C250.491 24.5417 250.391 24.7583 250.191 24.925C250.008 25.0917 249.741 25.175 249.391 25.175C249.025 25.175 248.725 25.1 248.491 24.95C248.275 24.7833 248.075 24.5417 247.891 24.225L245.266 19.375C244.916 18.725 244.516 18.2917 244.066 18.075C243.616 17.8417 243.025 17.725 242.291 17.725H239.466V23.85C239.466 24.2667 239.358 24.5917 239.141 24.825C238.925 25.0583 238.6 25.175 238.166 25.175ZM239.466 15.775H243.741C245.008 15.775 245.966 15.5083 246.616 14.975C247.266 14.4417 247.591 13.65 247.591 12.6C247.591 11.5667 247.266 10.7833 246.616 10.25C245.966 9.71667 245.008 9.45 243.741 9.45H239.466V15.775ZM261.752 25.175C261.319 25.175 260.977 25.0583 260.727 24.825C260.494 24.5917 260.377 24.25 260.377 23.8V8.775C260.377 8.325 260.494 7.98333 260.727 7.75C260.977 7.5 261.327 7.375 261.777 7.375H270.677C271.044 7.375 271.31 7.46667 271.477 7.65C271.66 7.81667 271.752 8.06667 271.752 8.4C271.752 8.75 271.66 9.01667 271.477 9.2C271.31 9.38333 271.044 9.475 270.677 9.475H262.977V15.1H270.177C270.51 15.1 270.769 15.1917 270.952 15.375C271.152 15.5417 271.252 15.7917 271.252 16.125C271.252 16.475 271.152 16.7417 270.952 16.925C270.769 17.1083 270.51 17.2 270.177 17.2H262.977V23.8C262.977 24.7167 262.569 25.175 261.752 25.175ZM275.52 25.175C275.103 25.175 274.778 25.0583 274.545 24.825C274.328 24.5917 274.22 24.2667 274.22 23.85V8.7C274.22 8.26667 274.337 7.94167 274.57 7.725C274.803 7.49167 275.128 7.375 275.545 7.375H281.52C283.42 7.375 284.887 7.825 285.92 8.725C286.953 9.625 287.47 10.9 287.47 12.55C287.47 13.6167 287.237 14.5333 286.77 15.3C286.303 16.0667 285.62 16.65 284.72 17.05C283.837 17.45 282.77 17.65 281.52 17.65L281.745 17.3H282.395C283.062 17.3 283.637 17.4667 284.12 17.8C284.62 18.1333 285.07 18.6667 285.47 19.4L287.62 23.4C287.787 23.7 287.862 23.9917 287.845 24.275C287.845 24.5417 287.745 24.7583 287.545 24.925C287.362 25.0917 287.095 25.175 286.745 25.175C286.378 25.175 286.078 25.1 285.845 24.95C285.628 24.7833 285.428 24.5417 285.245 24.225L282.62 19.375C282.27 18.725 281.87 18.2917 281.42 18.075C280.97 17.8417 280.378 17.725 279.645 17.725H276.82V23.85C276.82 24.2667 276.712 24.5917 276.495 24.825C276.278 25.0583 275.953 25.175 275.52 25.175ZM276.82 15.775H281.095C282.362 15.775 283.32 15.5083 283.97 14.975C284.62 14.4417 284.945 13.65 284.945 12.6C284.945 11.5667 284.62 10.7833 283.97 10.25C283.32 9.71667 282.362 9.45 281.095 9.45H276.82V15.775ZM292.439 25.175C292.022 25.175 291.697 25.0583 291.464 24.825C291.247 24.5917 291.139 24.2667 291.139 23.85V8.525C291.139 8.09167 291.247 7.76667 291.464 7.55C291.697 7.31667 292.022 7.2 292.439 7.2C292.856 7.2 293.172 7.31667 293.389 7.55C293.622 7.76667 293.739 8.09167 293.739 8.525V23.85C293.739 24.2667 293.631 24.5917 293.414 24.825C293.197 25.0583 292.872 25.175 292.439 25.175ZM299.228 25C298.778 25 298.428 24.8833 298.178 24.65C297.945 24.4 297.828 24.05 297.828 23.6V8.775C297.828 8.325 297.945 7.98333 298.178 7.75C298.428 7.5 298.778 7.375 299.228 7.375H308.353C308.703 7.375 308.97 7.46667 309.153 7.65C309.337 7.81667 309.428 8.06667 309.428 8.4C309.428 8.75 309.337 9.01667 309.153 9.2C308.97 9.38333 308.703 9.475 308.353 9.475H300.328V15H307.803C308.17 15 308.437 15.0917 308.603 15.275C308.787 15.4583 308.878 15.7167 308.878 16.05C308.878 16.4 308.787 16.6667 308.603 16.85C308.437 17.0167 308.17 17.1 307.803 17.1H300.328V22.9H308.353C308.703 22.9 308.97 22.9917 309.153 23.175C309.337 23.3583 309.428 23.6167 309.428 23.95C309.428 24.3 309.337 24.5667 309.153 24.75C308.97 24.9167 308.703 25 308.353 25H299.228ZM313.775 25.175C313.392 25.175 313.092 25.0667 312.875 24.85C312.658 24.6333 312.55 24.325 312.55 23.925V8.5C312.55 8.08333 312.65 7.76667 312.85 7.55C313.067 7.31667 313.35 7.2 313.7 7.2C314 7.2 314.225 7.25833 314.375 7.375C314.542 7.475 314.733 7.66667 314.95 7.95L325.25 21.525H324.625V8.425C324.625 8.04167 324.725 7.74167 324.925 7.525C325.142 7.30833 325.442 7.2 325.825 7.2C326.225 7.2 326.525 7.30833 326.725 7.525C326.925 7.74167 327.025 8.04167 327.025 8.425V23.95C327.025 24.3333 326.925 24.6333 326.725 24.85C326.542 25.0667 326.292 25.175 325.975 25.175C325.675 25.175 325.425 25.1167 325.225 25C325.042 24.8833 324.842 24.6833 324.625 24.4L314.375 10.85H314.95V23.925C314.95 24.325 314.85 24.6333 314.65 24.85C314.45 25.0667 314.158 25.175 313.775 25.175ZM332.529 25C332.079 25 331.729 24.8833 331.479 24.65C331.246 24.4 331.129 24.05 331.129 23.6V8.775C331.129 8.325 331.246 7.98333 331.479 7.75C331.729 7.5 332.079 7.375 332.529 7.375H337.354C340.254 7.375 342.487 8.13333 344.054 9.65C345.637 11.15 346.429 13.325 346.429 16.175C346.429 17.5917 346.229 18.85 345.829 19.95C345.429 21.05 344.837 21.975 344.054 22.725C343.287 23.4583 342.346 24.025 341.229 24.425C340.112 24.8083 338.821 25 337.354 25H332.529ZM333.729 22.825H337.204C338.304 22.825 339.254 22.6917 340.054 22.425C340.871 22.1417 341.554 21.725 342.104 21.175C342.654 20.625 343.062 19.9333 343.329 19.1C343.596 18.2667 343.729 17.2917 343.729 16.175C343.729 13.9583 343.179 12.3 342.079 11.2C340.996 10.1 339.371 9.55 337.204 9.55H333.729V22.825ZM351.229 25C350.812 25 350.487 24.8833 350.254 24.65C350.02 24.4167 349.904 24.0917 349.904 23.675V8.6C349.904 8.16667 350.012 7.84167 350.229 7.625C350.462 7.39167 350.787 7.275 351.204 7.275C351.62 7.275 351.937 7.39167 352.154 7.625C352.387 7.84167 352.504 8.16667 352.504 8.6V22.775H360.254C360.62 22.775 360.904 22.875 361.104 23.075C361.304 23.2583 361.404 23.525 361.404 23.875C361.404 24.225 361.304 24.5 361.104 24.7C360.904 24.9 360.62 25 360.254 25H351.229ZM366.293 25.175C365.876 25.175 365.551 25.0583 365.318 24.825C365.101 24.5917 364.993 24.2583 364.993 23.825V15.9L365.568 17.55L359.393 8.975C359.209 8.725 359.126 8.46667 359.143 8.2C359.159 7.91667 359.268 7.68333 359.468 7.5C359.684 7.3 359.968 7.2 360.318 7.2C360.584 7.2 360.826 7.26667 361.043 7.4C361.276 7.53333 361.493 7.74167 361.693 8.025L366.643 14.9H366.043L370.993 8.025C371.209 7.725 371.418 7.51667 371.618 7.4C371.818 7.26667 372.068 7.2 372.368 7.2C372.718 7.2 372.984 7.29167 373.168 7.475C373.368 7.64167 373.468 7.86667 373.468 8.15C373.484 8.41667 373.384 8.7 373.168 9L367.043 17.55L367.568 15.9V23.825C367.568 24.725 367.143 25.175 366.293 25.175ZM383.746 25.175C383.362 25.175 383.062 25.0667 382.846 24.85C382.629 24.6333 382.521 24.325 382.521 23.925V8.5C382.521 8.08333 382.621 7.76667 382.821 7.55C383.037 7.31667 383.321 7.2 383.671 7.2C383.971 7.2 384.196 7.25833 384.346 7.375C384.512 7.475 384.704 7.66667 384.921 7.95L395.221 21.525H394.596V8.425C394.596 8.04167 394.696 7.74167 394.896 7.525C395.112 7.30833 395.412 7.2 395.796 7.2C396.196 7.2 396.496 7.30833 396.696 7.525C396.896 7.74167 396.996 8.04167 396.996 8.425V23.95C396.996 24.3333 396.896 24.6333 396.696 24.85C396.512 25.0667 396.262 25.175 395.946 25.175C395.646 25.175 395.396 25.1167 395.196 25C395.012 24.8833 394.812 24.6833 394.596 24.4L384.346 10.85H384.921V23.925C384.921 24.325 384.821 24.6333 384.621 24.85C384.421 25.0667 384.129 25.175 383.746 25.175ZM402.5 25C402.05 25 401.7 24.8833 401.45 24.65C401.216 24.4 401.1 24.05 401.1 23.6V8.775C401.1 8.325 401.216 7.98333 401.45 7.75C401.7 7.5 402.05 7.375 402.5 7.375H411.625C411.975 7.375 412.241 7.46667 412.425 7.65C412.608 7.81667 412.7 8.06667 412.7 8.4C412.7 8.75 412.608 9.01667 412.425 9.2C412.241 9.38333 411.975 9.475 411.625 9.475H403.6V15H411.075C411.441 15 411.708 15.0917 411.875 15.275C412.058 15.4583 412.15 15.7167 412.15 16.05C412.15 16.4 412.058 16.6667 411.875 16.85C411.708 17.0167 411.441 17.1 411.075 17.1H403.6V22.9H411.625C411.975 22.9 412.241 22.9917 412.425 23.175C412.608 23.3583 412.7 23.6167 412.7 23.95C412.7 24.3 412.608 24.5667 412.425 24.75C412.241 24.9167 411.975 25 411.625 25H402.5ZM417.121 25.175C416.705 25.175 416.38 25.0583 416.146 24.825C415.93 24.5917 415.821 24.2667 415.821 23.85V8.525C415.821 8.09167 415.93 7.76667 416.146 7.55C416.38 7.31667 416.705 7.2 417.121 7.2C417.538 7.2 417.855 7.31667 418.071 7.55C418.305 7.76667 418.421 8.09167 418.421 8.525V23.85C418.421 24.2667 418.313 24.5917 418.096 24.825C417.88 25.0583 417.555 25.175 417.121 25.175ZM430.761 25.225C428.844 25.225 427.228 24.8667 425.911 24.15C424.594 23.4167 423.594 22.375 422.911 21.025C422.244 19.675 421.911 18.0667 421.911 16.2C421.911 14.8 422.103 13.55 422.486 12.45C422.886 11.3333 423.453 10.3833 424.186 9.6C424.936 8.8 425.844 8.19167 426.911 7.775C427.994 7.35833 429.219 7.15 430.586 7.15C431.586 7.15 432.569 7.28333 433.536 7.55C434.503 7.8 435.386 8.21667 436.186 8.8C436.419 8.96667 436.569 9.15833 436.636 9.375C436.703 9.59167 436.703 9.81667 436.636 10.05C436.586 10.2667 436.478 10.4583 436.311 10.625C436.161 10.7917 435.969 10.8917 435.736 10.925C435.519 10.9583 435.278 10.8917 435.011 10.725C434.361 10.275 433.678 9.95 432.961 9.75C432.244 9.53333 431.453 9.425 430.586 9.425C429.286 9.425 428.186 9.69167 427.286 10.225C426.403 10.7583 425.736 11.5333 425.286 12.55C424.836 13.55 424.611 14.7667 424.611 16.2C424.611 18.4167 425.136 20.1 426.186 21.25C427.236 22.4 428.794 22.975 430.861 22.975C431.611 22.975 432.344 22.9083 433.061 22.775C433.794 22.625 434.494 22.4167 435.161 22.15L434.636 23.45V17.625H431.411C431.078 17.625 430.811 17.5417 430.611 17.375C430.428 17.1917 430.336 16.9417 430.336 16.625C430.336 16.3083 430.428 16.075 430.611 15.925C430.811 15.7583 431.078 15.675 431.411 15.675H435.736C436.086 15.675 436.353 15.7667 436.536 15.95C436.719 16.1333 436.811 16.4 436.811 16.75V23.05C436.811 23.35 436.753 23.6083 436.636 23.825C436.536 24.025 436.361 24.175 436.111 24.275C435.394 24.5583 434.553 24.7917 433.586 24.975C432.619 25.1417 431.678 25.225 430.761 25.225ZM442.097 25.175C441.68 25.175 441.355 25.0583 441.122 24.825C440.905 24.5917 440.797 24.2667 440.797 23.85V8.525C440.797 8.09167 440.905 7.76667 441.122 7.55C441.355 7.31667 441.68 7.2 442.097 7.2C442.514 7.2 442.83 7.31667 443.047 7.55C443.28 7.76667 443.397 8.09167 443.397 8.525V14.975H453.272V8.525C453.272 8.09167 453.38 7.76667 453.597 7.55C453.83 7.31667 454.155 7.2 454.572 7.2C454.989 7.2 455.305 7.31667 455.522 7.55C455.739 7.76667 455.847 8.09167 455.847 8.525V23.85C455.847 24.2667 455.739 24.5917 455.522 24.825C455.305 25.0583 454.989 25.175 454.572 25.175C454.155 25.175 453.83 25.0583 453.597 24.825C453.38 24.5917 453.272 24.2667 453.272 23.85V17.15H443.397V23.85C443.397 24.2667 443.289 24.5917 443.072 24.825C442.855 25.0583 442.53 25.175 442.097 25.175ZM461.362 25C460.912 25 460.562 24.8833 460.312 24.65C460.079 24.4 459.962 24.05 459.962 23.6V8.775C459.962 8.325 460.079 7.98333 460.312 7.75C460.562 7.5 460.912 7.375 461.362 7.375H467.312C468.529 7.375 469.562 7.55833 470.412 7.925C471.279 8.29167 471.937 8.81667 472.387 9.5C472.854 10.1833 473.087 11.0083 473.087 11.975C473.087 13.0417 472.77 13.9417 472.137 14.675C471.504 15.4083 470.645 15.9 469.562 16.15V15.775C470.795 15.9417 471.762 16.4083 472.462 17.175C473.162 17.925 473.512 18.9083 473.512 20.125C473.512 21.6917 472.995 22.9 471.962 23.75C470.929 24.5833 469.479 25 467.612 25H461.362ZM462.462 23H467.312C468.562 23 469.487 22.7583 470.087 22.275C470.687 21.775 470.987 21.025 470.987 20.025C470.987 19.025 470.687 18.2833 470.087 17.8C469.487 17.3167 468.562 17.075 467.312 17.075H462.462V23ZM462.462 15.075H466.912C468.112 15.075 469.02 14.8333 469.637 14.35C470.254 13.8667 470.562 13.1583 470.562 12.225C470.562 11.2917 470.254 10.5833 469.637 10.1C469.02 9.61667 468.112 9.375 466.912 9.375H462.462V15.075ZM484.653 25.225C482.986 25.225 481.528 24.8583 480.278 24.125C479.045 23.375 478.086 22.325 477.403 20.975C476.736 19.6083 476.403 18.0083 476.403 16.175C476.403 14.7917 476.595 13.55 476.978 12.45C477.361 11.3333 477.911 10.3833 478.628 9.6C479.345 8.8 480.211 8.19167 481.228 7.775C482.245 7.35833 483.386 7.15 484.653 7.15C486.336 7.15 487.795 7.51667 489.028 8.25C490.261 8.98333 491.211 10.025 491.878 11.375C492.561 12.725 492.903 14.3167 492.903 16.15C492.903 17.5333 492.711 18.7833 492.328 19.9C491.945 21.0167 491.386 21.975 490.653 22.775C489.936 23.575 489.07 24.1833 488.053 24.6C487.036 25.0167 485.903 25.225 484.653 25.225ZM484.653 22.975C485.82 22.975 486.811 22.7083 487.628 22.175C488.461 21.6417 489.095 20.8667 489.528 19.85C489.978 18.8333 490.203 17.6083 490.203 16.175C490.203 14.025 489.72 12.3583 488.753 11.175C487.786 9.99167 486.42 9.4 484.653 9.4C483.486 9.4 482.486 9.66667 481.653 10.2C480.836 10.7167 480.203 11.4833 479.753 12.5C479.32 13.5167 479.103 14.7417 479.103 16.175C479.103 18.3083 479.586 19.975 480.553 21.175C481.536 22.375 482.903 22.975 484.653 22.975ZM497.688 25.175C497.271 25.175 496.946 25.0583 496.713 24.825C496.496 24.5917 496.388 24.2667 496.388 23.85V8.7C496.388 8.26667 496.505 7.94167 496.738 7.725C496.971 7.49167 497.296 7.375 497.713 7.375H503.688C505.588 7.375 507.055 7.825 508.088 8.725C509.121 9.625 509.638 10.9 509.638 12.55C509.638 13.6167 509.405 14.5333 508.938 15.3C508.471 16.0667 507.788 16.65 506.888 17.05C506.005 17.45 504.938 17.65 503.688 17.65L503.913 17.3H504.563C505.23 17.3 505.805 17.4667 506.288 17.8C506.788 18.1333 507.238 18.6667 507.638 19.4L509.788 23.4C509.955 23.7 510.03 23.9917 510.013 24.275C510.013 24.5417 509.913 24.7583 509.713 24.925C509.53 25.0917 509.263 25.175 508.913 25.175C508.546 25.175 508.246 25.1 508.013 24.95C507.796 24.7833 507.596 24.5417 507.413 24.225L504.788 19.375C504.438 18.725 504.038 18.2917 503.588 18.075C503.138 17.8417 502.546 17.725 501.813 17.725H498.988V23.85C498.988 24.2667 498.88 24.5917 498.663 24.825C498.446 25.0583 498.121 25.175 497.688 25.175ZM498.988 15.775H503.263C504.53 15.775 505.488 15.5083 506.138 14.975C506.788 14.4417 507.113 13.65 507.113 12.6C507.113 11.5667 506.788 10.7833 506.138 10.25C505.488 9.71667 504.53 9.45 503.263 9.45H498.988V15.775ZM514.607 25.175C514.19 25.175 513.865 25.0583 513.632 24.825C513.415 24.5917 513.307 24.2667 513.307 23.85V8.525C513.307 8.09167 513.415 7.76667 513.632 7.55C513.865 7.31667 514.19 7.2 514.607 7.2C515.024 7.2 515.34 7.31667 515.557 7.55C515.79 7.76667 515.907 8.09167 515.907 8.525V14.975H525.782V8.525C525.782 8.09167 525.89 7.76667 526.107 7.55C526.34 7.31667 526.665 7.2 527.082 7.2C527.499 7.2 527.815 7.31667 528.032 7.55C528.249 7.76667 528.357 8.09167 528.357 8.525V23.85C528.357 24.2667 528.249 24.5917 528.032 24.825C527.815 25.0583 527.499 25.175 527.082 25.175C526.665 25.175 526.34 25.0583 526.107 24.825C525.89 24.5917 525.782 24.2667 525.782 23.85V17.15H515.907V23.85C515.907 24.2667 515.799 24.5917 515.582 24.825C515.365 25.0583 515.04 25.175 514.607 25.175ZM540.122 25.225C538.455 25.225 536.997 24.8583 535.747 24.125C534.514 23.375 533.555 22.325 532.872 20.975C532.205 19.6083 531.872 18.0083 531.872 16.175C531.872 14.7917 532.064 13.55 532.447 12.45C532.83 11.3333 533.38 10.3833 534.097 9.6C534.814 8.8 535.68 8.19167 536.697 7.775C537.714 7.35833 538.855 7.15 540.122 7.15C541.805 7.15 543.264 7.51667 544.497 8.25C545.73 8.98333 546.68 10.025 547.347 11.375C548.03 12.725 548.372 14.3167 548.372 16.15C548.372 17.5333 548.18 18.7833 547.797 19.9C547.414 21.0167 546.855 21.975 546.122 22.775C545.405 23.575 544.539 24.1833 543.522 24.6C542.505 25.0167 541.372 25.225 540.122 25.225ZM540.122 22.975C541.289 22.975 542.28 22.7083 543.097 22.175C543.93 21.6417 544.564 20.8667 544.997 19.85C545.447 18.8333 545.672 17.6083 545.672 16.175C545.672 14.025 545.189 12.3583 544.222 11.175C543.255 9.99167 541.889 9.4 540.122 9.4C538.955 9.4 537.955 9.66667 537.122 10.2C536.305 10.7167 535.672 11.4833 535.222 12.5C534.789 13.5167 534.572 14.7417 534.572 16.175C534.572 18.3083 535.055 19.975 536.022 21.175C537.005 22.375 538.372 22.975 540.122 22.975ZM559.507 25.225C557.84 25.225 556.382 24.8583 555.132 24.125C553.898 23.375 552.94 22.325 552.257 20.975C551.59 19.6083 551.257 18.0083 551.257 16.175C551.257 14.7917 551.448 13.55 551.832 12.45C552.215 11.3333 552.765 10.3833 553.482 9.6C554.198 8.8 555.065 8.19167 556.082 7.775C557.098 7.35833 558.24 7.15 559.507 7.15C561.19 7.15 562.648 7.51667 563.882 8.25C565.115 8.98333 566.065 10.025 566.732 11.375C567.415 12.725 567.757 14.3167 567.757 16.15C567.757 17.5333 567.565 18.7833 567.182 19.9C566.798 21.0167 566.24 21.975 565.507 22.775C564.79 23.575 563.923 24.1833 562.907 24.6C561.89 25.0167 560.757 25.225 559.507 25.225ZM559.507 22.975C560.673 22.975 561.665 22.7083 562.482 22.175C563.315 21.6417 563.948 20.8667 564.382 19.85C564.832 18.8333 565.057 17.6083 565.057 16.175C565.057 14.025 564.573 12.3583 563.607 11.175C562.64 9.99167 561.273 9.4 559.507 9.4C558.34 9.4 557.34 9.66667 556.507 10.2C555.69 10.7167 555.057 11.4833 554.607 12.5C554.173 13.5167 553.957 14.7417 553.957 16.175C553.957 18.3083 554.44 19.975 555.407 21.175C556.39 22.375 557.757 22.975 559.507 22.975ZM572.641 25C572.191 25 571.841 24.8833 571.591 24.65C571.358 24.4 571.241 24.05 571.241 23.6V8.775C571.241 8.325 571.358 7.98333 571.591 7.75C571.841 7.5 572.191 7.375 572.641 7.375H577.466C580.366 7.375 582.6 8.13333 584.166 9.65C585.75 11.15 586.541 13.325 586.541 16.175C586.541 17.5917 586.341 18.85 585.941 19.95C585.541 21.05 584.95 21.975 584.166 22.725C583.4 23.4583 582.458 24.025 581.341 24.425C580.225 24.8083 578.933 25 577.466 25H572.641ZM573.841 22.825H577.316C578.416 22.825 579.366 22.6917 580.166 22.425C580.983 22.1417 581.666 21.725 582.216 21.175C582.766 20.625 583.175 19.9333 583.441 19.1C583.708 18.2667 583.841 17.2917 583.841 16.175C583.841 13.9583 583.291 12.3 582.191 11.2C581.108 10.1 579.483 9.55 577.316 9.55H573.841V22.825Z" fill="#6B350E"/>
</svg>
